<?xml version="1.0" encoding="UTF-8"?>
<svg version="1.1" xmlns="http://www.w3.org/2000/svg" width="259" height="271">
<path d="M0 0 C8.21011306 4.77408989 12.00208199 12.58066466 14.75 21.4375 C15.19051136 24.10407015 15.47992945 26.74550649 15.75 29.4375 C17.38195312 29.2209375 17.38195312 29.2209375 19.046875 29 C27.66964669 27.89671002 36.0406517 27.19904204 44.75 27.4375 C44.79898438 28.04746826 44.84796875 28.65743652 44.8984375 29.28588867 C45.14396032 32.07050899 45.44632006 34.84614559 45.75 37.625 C45.82605469 38.58470703 45.90210938 39.54441406 45.98046875 40.53320312 C46.53285375 45.91051233 46.53285375 45.91051233 49.58105469 50.15209961 C51.59229804 51.38917389 53.63065093 52.40288718 55.75 53.4375 C60.14191447 57.70741685 63.54137933 64.34569013 63.85742188 70.54443359 C63.85915249 72.50911463 63.80843438 74.47368738 63.75 76.4375 C65.39548828 76.56705078 65.39548828 76.56705078 67.07421875 76.69921875 C68.52875906 76.83998072 69.98318067 76.98197295 71.4375 77.125 C72.15873047 77.17849609 72.87996094 77.23199219 73.62304688 77.28710938 C78.88209492 77.83942949 81.27972002 79.20060985 84.75 83.4375 C85.07613281 82.60605469 85.40226563 81.77460937 85.73828125 80.91796875 C86.17527344 79.83128906 86.61226562 78.74460937 87.0625 77.625 C87.49175781 76.54605469 87.92101562 75.46710938 88.36328125 74.35546875 C89.65916337 71.62864074 90.4711382 70.31517738 92.75 68.4375 C100.10054786 66.99535047 106.92976939 67.74865565 114.3125 68.6875 C115.45549561 68.82881348 116.59849121 68.97012695 117.77612305 69.11572266 C121.1034851 69.53807331 124.42701313 69.98211243 127.75 70.4375 C128.63494141 70.55641602 129.51988281 70.67533203 130.43164062 70.79785156 C132.6476482 71.10758693 134.85466641 71.44953929 137.0625 71.8125 C138.25488281 72.00585938 139.44726562 72.19921875 140.67578125 72.3984375 C144.49318315 73.68869024 146.28344548 75.27347407 148.75 78.4375 C149.56038937 82.87534658 147.96181538 86.93443847 146.25 91 C143.75 93.4375 143.75 93.4375 141.88867188 93.73706055 C136.02463744 93.63479622 130.48963877 92.87074861 124.75 91.6875 C123.91210938 91.53023438 123.07421875 91.37296875 122.2109375 91.2109375 C116.98701744 90.15968424 112.44014293 88.59519766 107.66015625 86.23339844 C105.63335086 85.24519231 105.63335086 85.24519231 102.75 85.4375 C100.2231171 94.51478362 97.70237962 103.59367806 95.20703125 112.6796875 C94.99430573 113.45411697 94.7815802 114.22854645 94.56240845 115.02644348 C93.65854161 118.31796452 92.75514183 121.60961248 91.85290527 124.90158081 C89.28779128 134.26031651 86.71033099 143.61461119 84.05859375 152.94921875 C73.85204892 187.84058777 73.85204892 187.84058777 68.13671875 223.63671875 C67.75409117 226.40787004 67.38888179 228.17276692 65.75 230.4375 C63.625 231.1875 63.625 231.1875 61.75 231.4375 C62.183125 231.95957031 62.61625 232.48164063 63.0625 233.01953125 C67.09611802 238.35100322 68.55278211 242.21495476 68.140625 248.921875 C67.40871168 253.63539676 65.82458187 256.39196088 62.4375 259.6875 C57.15826658 263.12514037 52.00211437 264.17649288 45.75 263.4375 C39.54695571 262.07305957 36.3265776 259.63979469 32.75 254.4375 C31.75592062 251.45526186 31.51959022 249.24874878 31.4375 246.125 C31.38142578 244.73861328 31.38142578 244.73861328 31.32421875 243.32421875 C31.75 240.4375 31.75 240.4375 35.75 234.4375 C-12.76 233.4475 -12.76 233.4475 -62.25 232.4375 C-60.6 234.4175 -58.95 236.3975 -57.25 238.4375 C-55.52762803 243.6046159 -55.59438378 248.54349758 -57.375 253.6875 C-60.58904246 258.40142894 -64.67350626 261.97698973 -70.25 263.4375 C-76.36708818 263.83215085 -82.18530081 263.88436562 -87.20703125 259.875 C-91.46699778 255.57165295 -93.26687031 251.90002793 -93.453125 245.828125 C-92.91018837 239.43817853 -89.90409212 235.58844702 -85.25 231.4375 C-85.80429688 231.18355469 -86.35859375 230.92960938 -86.9296875 230.66796875 C-88.01636719 230.15169922 -88.01636719 230.15169922 -89.125 229.625 C-89.84429687 229.28855469 -90.56359375 228.95210937 -91.3046875 228.60546875 C-93.25 227.4375 -93.25 227.4375 -95.25 224.4375 C-95.1875 221.4375 -95.1875 221.4375 -94.25 218.4375 C-89.72711057 214.89253261 -85.56080072 214.28046306 -79.95581055 214.50756836 C-78.88139709 214.54767532 -77.80698364 214.58778229 -76.70001221 214.62910461 C-75.52412537 214.67802353 -74.34823853 214.72694244 -73.13671875 214.77734375 C-70.55202595 214.87256125 -67.96730778 214.96709167 -65.38256836 215.06103516 C-63.99355752 215.11297017 -62.60455001 215.16499402 -61.21554565 215.21710205 C-34.36846745 216.2154119 -7.55271344 216.62587097 19.3125 216.5625 C20.50294607 216.55983187 20.50294607 216.55983187 21.71744156 216.55710983 C31.39506148 216.53435537 41.07252203 216.49517916 50.75 216.4375 C51.08 214.4575 51.41 212.4775 51.75 210.4375 C36.34753292 206.98223163 20.91161991 203.90222505 5.375 201.1171875 C3.22413129 200.72834966 1.07333532 200.33910932 -1.07739258 199.94949341 C-6.66683827 198.93783528 -12.25709297 197.93072785 -17.84759521 196.92492676 C-26.81805473 195.31026014 -35.78725947 193.68864145 -44.75640869 192.06671524 C-47.85279994 191.50748493 -50.94955886 190.95033087 -54.04638672 190.39352417 C-59.44986208 189.42038581 -64.85110375 188.43573026 -70.25 187.4375 C-71.40190826 187.22512569 -71.40190826 187.22512569 -72.5770874 187.008461 C-74.65836605 186.62133493 -76.73765097 186.22513432 -78.81640625 185.82470703 C-79.9463501 185.60896027 -81.07629395 185.3932135 -82.24047852 185.17092896 C-86.64392976 184.09779535 -90.94862243 182.61990901 -94.25 179.4375 C-97.61199103 172.93799603 -98.76322603 166.00865199 -100.16796875 158.875 C-100.43224703 157.55646355 -100.69701083 156.23802434 -100.9622345 154.91967773 C-101.51419267 152.16713665 -102.06071694 149.4135893 -102.60327148 146.65917969 C-103.29612991 143.14368913 -104.00186504 139.63093363 -104.71161938 136.11882019 C-105.25964174 133.40020143 -105.80111483 130.68030976 -106.34063148 127.95999146 C-106.72272058 126.03895563 -107.10998732 124.11895194 -107.49736023 122.19897461 C-110.26404001 108.06207415 -110.26404001 108.06207415 -108.1875 102.6875 C-105.59758569 99.67985758 -102.96257199 98.72002487 -99.25 97.4375 C-98.59 97.4375 -97.93 97.4375 -97.25 97.4375 C-97.21132812 96.633125 -97.21132812 96.633125 -97.171875 95.8125 C-96.66633052 88.82679449 -95.06558668 82.24178249 -93.2890625 75.49609375 C-92.04219191 70.74282392 -91.08683082 65.93370187 -90.15625 61.109375 C-89.08067427 57.93828103 -87.8497016 56.52010767 -85.25 54.4375 C-80.84179238 53.04156759 -76.77689298 52.42942222 -72.17578125 52.23828125 C-71.4580957 52.20694092 -70.74041016 52.17560059 -70.00097656 52.14331055 C-68.55430476 52.0898915 -67.10677332 52.05585881 -65.65917969 52.04223633 C-63.39325956 52.01146324 -63.39325956 52.01146324 -60.25 51.4375 C-58.95408138 49.56965217 -58.95408138 49.56965217 -58.25 47.4375 C-52.37407171 43.60200395 -44.97900929 42.09774154 -38.25 40.4375 C-38.25 38.14275036 -38.27881894 35.84671179 -38.390625 33.5546875 C-38.72486685 23.64680419 -37.05072959 15.53953758 -30.1640625 8.10546875 C-21.63166209 0.67009125 -11.19611098 -5.04795755 0 0 Z M-23.5 8.4375 C-29.28792113 15.97886641 -29.58291565 23.5528277 -28.671875 32.75 C-28.39497341 35.40013455 -28.39497341 35.40013455 -27.25 37.4375 C-19.92849106 36.76770896 -12.87089577 35.42079403 -5.6875 33.875 C-4.58341797 33.64103516 -3.47933594 33.40707031 -2.34179688 33.16601562 C0.35631255 32.59368938 3.05351875 32.01743998 5.75 31.4375 C4.55167439 17.93820937 4.55167439 17.93820937 -1.9375 6.5 C-9.02982721 2.08402268 -17.43254996 2.10104971 -23.5 8.4375 Z M2.75 6.4375 C3.75 8.4375 3.75 8.4375 3.75 8.4375 Z M3.75 8.4375 C3.94335938 9.27152344 4.13671875 10.10554687 4.3359375 10.96484375 C5.83641523 17.44958167 7.31776309 23.93734785 8.75 30.4375 C10.07 30.4375 11.39 30.4375 12.75 30.4375 C11.76924084 22.73780871 9.9821546 16.02989466 5.75 9.4375 C5.09 9.1075 4.43 8.7775 3.75 8.4375 Z M-31.25 14.4375 C-30.25 16.4375 -30.25 16.4375 -30.25 16.4375 Z M-32.25 16.4375 C-35.86608709 22.91632271 -35.76350321 29.12995425 -35.25 36.4375 C-34.92 37.4275 -34.59 38.4175 -34.25 39.4375 C-32.93 39.1075 -31.61 38.7775 -30.25 38.4375 C-30.415 37.40625 -30.58 36.375 -30.75 35.3125 C-31.5527475 29.04880822 -31.32965938 22.73944211 -31.25 16.4375 C-31.58 16.4375 -31.91 16.4375 -32.25 16.4375 Z M47.75 53.4375 C48.26405694 61.12647931 48.8265501 68.78605794 49.75 76.4375 C53.38 76.4375 57.01 76.4375 60.75 76.4375 C60.39769175 67.04261339 58.6454223 62.02034976 52.625 54.9375 C50.75976086 53.12515248 50.75976086 53.12515248 47.75 53.4375 Z " fill="#D1D0D0" transform="translate(110.25,5.5625)"/>
<path d="M0 0 C8.21011306 4.77408989 12.00208199 12.58066466 14.75 21.4375 C15.19051136 24.10407015 15.47992945 26.74550649 15.75 29.4375 C17.38195312 29.2209375 17.38195312 29.2209375 19.046875 29 C27.66964669 27.89671002 36.0406517 27.19904204 44.75 27.4375 C44.79898438 28.04746826 44.84796875 28.65743652 44.8984375 29.28588867 C45.14396032 32.07050899 45.44632006 34.84614559 45.75 37.625 C45.82605469 38.58470703 45.90210938 39.54441406 45.98046875 40.53320312 C46.53021405 45.90788222 46.53021405 45.90788222 49.57885742 50.14331055 C51.68601078 51.48198433 51.68601078 51.48198433 53.84448242 52.48583984 C56.66008454 53.89201756 58.04061954 55.84177412 59.75 58.4375 C60.53890625 59.63439453 60.53890625 59.63439453 61.34375 60.85546875 C63.37191594 66.0216581 63.06941033 70.81961849 62.9375 76.3125 C62.91719727 77.91738281 62.91719727 77.91738281 62.89648438 79.5546875 C62.86128624 82.18281511 62.81204693 84.80989194 62.75 87.4375 C63.92369141 87.61925781 63.92369141 87.61925781 65.12109375 87.8046875 C66.13300781 87.97226563 67.14492187 88.13984375 68.1875 88.3125 C69.19683594 88.47492188 70.20617187 88.63734375 71.24609375 88.8046875 C72.07238281 89.01351562 72.89867187 89.22234375 73.75 89.4375 C74.08 90.0975 74.41 90.7575 74.75 91.4375 C67.82 90.9425 67.82 90.9425 60.75 90.4375 C60.255 91.9225 60.255 91.9225 59.75 93.4375 C59.75 92.1175 59.75 90.7975 59.75 89.4375 C56.78 89.1075 53.81 88.7775 50.75 88.4375 C50.75 90.4175 50.75 92.3975 50.75 94.4375 C15.74490399 95.25465503 -19.23566024 95.57925195 -54.25 95.4375 C-54.90222541 91.50103184 -55.54557765 87.56316031 -56.1875 83.625 C-56.36990234 82.52478516 -56.55230469 81.42457031 -56.74023438 80.29101562 C-58.35884757 70.31447246 -59.41575638 60.54863897 -59.25 50.4375 C-58.59 50.4375 -57.93 50.4375 -57.25 50.4375 C-57.09789062 49.67050781 -56.94578125 48.90351562 -56.7890625 48.11328125 C-54.73775834 44.54692758 -52.87303292 44.2788213 -49.03125 43.22070312 C-48.2371875 43.02412109 -47.443125 42.82753906 -46.625 42.625 C-45.82320312 42.40908203 -45.02140625 42.19316406 -44.1953125 41.97070312 C-42.21839513 41.44117169 -40.2347495 40.93687487 -38.25 40.4375 C-38.25 38.14275036 -38.27881894 35.84671179 -38.390625 33.5546875 C-38.72486685 23.64680419 -37.05072959 15.53953758 -30.1640625 8.10546875 C-21.63166209 0.67009125 -11.19611098 -5.04795755 0 0 Z M-23.5 8.4375 C-29.28792113 15.97886641 -29.58291565 23.5528277 -28.671875 32.75 C-28.39497341 35.40013455 -28.39497341 35.40013455 -27.25 37.4375 C-19.92849106 36.76770896 -12.87089577 35.42079403 -5.6875 33.875 C-4.58341797 33.64103516 -3.47933594 33.40707031 -2.34179688 33.16601562 C0.35631255 32.59368938 3.05351875 32.01743998 5.75 31.4375 C4.55167439 17.93820937 4.55167439 17.93820937 -1.9375 6.5 C-9.02982721 2.08402268 -17.43254996 2.10104971 -23.5 8.4375 Z M2.75 6.4375 C3.75 8.4375 3.75 8.4375 3.75 8.4375 Z M3.75 8.4375 C3.94335938 9.27152344 4.13671875 10.10554687 4.3359375 10.96484375 C5.83641523 17.44958167 7.31776309 23.93734785 8.75 30.4375 C10.07 30.4375 11.39 30.4375 12.75 30.4375 C11.76924084 22.73780871 9.9821546 16.02989466 5.75 9.4375 C5.09 9.1075 4.43 8.7775 3.75 8.4375 Z M-31.25 14.4375 C-30.25 16.4375 -30.25 16.4375 -30.25 16.4375 Z M-32.25 16.4375 C-35.86608709 22.91632271 -35.76350321 29.12995425 -35.25 36.4375 C-34.92 37.4275 -34.59 38.4175 -34.25 39.4375 C-32.93 39.1075 -31.61 38.7775 -30.25 38.4375 C-30.415 37.40625 -30.58 36.375 -30.75 35.3125 C-31.5527475 29.04880822 -31.32965938 22.73944211 -31.25 16.4375 C-31.58 16.4375 -31.91 16.4375 -32.25 16.4375 Z M47.75 53.4375 C48.26405694 61.12647931 48.8265501 68.78605794 49.75 76.4375 C53.38 76.4375 57.01 76.4375 60.75 76.4375 C60.39769175 67.04261339 58.6454223 62.02034976 52.625 54.9375 C50.75976086 53.12515248 50.75976086 53.12515248 47.75 53.4375 Z " fill="#D7342B" transform="translate(110.25,5.5625)"/>
<path d="M0 0 C1.07122604 0.04010696 2.14245209 0.08021393 3.24613953 0.12153625 C4.41884903 0.17045517 5.59155853 0.21937408 6.79980469 0.26977539 C9.37928847 0.36500999 11.95879837 0.45953932 14.53833008 0.5534668 C15.92522489 0.60540562 17.31211652 0.65742942 18.69900513 0.70953369 C45.73174691 1.71605881 72.73318856 2.11779361 99.78417969 2.05493164 C100.99256248 2.05226351 100.99256248 2.05226351 102.22535706 2.04954147 C112.05756328 2.02676844 121.8896129 1.98756323 131.72167969 1.92993164 C132.05167969 2.91993164 132.38167969 3.90993164 132.72167969 4.92993164 C130.97402295 6.67758838 128.535801 6.10017694 126.15820312 6.13525391 C124.96475281 6.15519913 123.77130249 6.17514435 122.54168701 6.19569397 C121.23467834 6.21240646 119.92766968 6.22911896 118.58105469 6.24633789 C117.22031072 6.26694594 115.85957259 6.28794331 114.49884033 6.30931091 C111.62702839 6.35340354 108.75519505 6.39426541 105.88330078 6.43261719 C102.2671614 6.48094021 98.65113208 6.53467857 95.03510284 6.59058571 C79.26369861 6.83366041 63.49530835 7.00040956 47.72167969 6.92993164 C47.72167969 7.58993164 47.72167969 8.24993164 47.72167969 8.92993164 C72.80167969 8.92993164 97.88167969 8.92993164 123.72167969 8.92993164 C123.39167969 10.57993164 123.06167969 12.22993164 122.72167969 13.92993164 C124.70167969 14.42493164 124.70167969 14.42493164 126.72167969 14.92993164 C119.71030239 18.43562029 115.38801895 20.05360344 107.40673828 19.85986328 C106.44084274 19.84050217 105.4749472 19.82114105 104.4797821 19.80119324 C101.27643648 19.73575242 98.07330218 19.66293821 94.87011719 19.59008789 C92.65338067 19.54336562 90.43663445 19.49710153 88.21987915 19.45127869 C82.37705145 19.32926373 76.53437668 19.20100385 70.69171143 19.07147217 C64.73303028 18.94046434 58.77422631 18.81532275 52.81542969 18.68969727 C41.11738482 18.44220495 29.41949304 18.18811953 17.72167969 17.92993164 C18.52605469 18.85805664 19.33042969 19.78618164 20.15917969 20.74243164 C23.67647875 24.80085364 24.01712724 28.43831735 23.93261719 33.65258789 C23.47295061 38.61528449 21.36941292 41.31036072 17.84667969 44.67993164 C11.33916882 49.36533947 5.89179689 49.51521125 -1.84082031 48.42993164 C-6.69171138 46.31317917 -9.58375557 43.47890189 -12.27832031 38.92993164 C-13.79782236 33.96053975 -13.61744761 30.07919636 -12.15332031 25.11743164 C-10.21130374 21.81600347 -8.12885516 19.47230056 -5.27832031 16.92993164 C-6.10976563 16.54901367 -6.10976563 16.54901367 -6.95800781 16.16040039 C-7.68246094 15.8162207 -8.40691406 15.47204102 -9.15332031 15.11743164 C-9.87261719 14.78098633 -10.59191406 14.44454102 -11.33300781 14.09790039 C-13.27832031 12.92993164 -13.27832031 12.92993164 -15.27832031 9.92993164 C-15.21582031 6.92993164 -15.21582031 6.92993164 -14.27832031 3.92993164 C-9.76111412 0.38941868 -5.59832228 -0.22757186 0 0 Z " fill="#D3D2D3" transform="translate(30.2783203125,220.070068359375)"/>
<path d="M0 0 C0.99 0.495 0.99 0.495 2 1 C2.6328125 3.06640625 2.6328125 3.06640625 3.125 5.5625 C3.29257812 6.38878906 3.46015625 7.21507812 3.6328125 8.06640625 C3.75398438 8.70449219 3.87515625 9.34257812 4 10 C4.84087158 9.99214478 4.84087158 9.99214478 5.69873047 9.98413086 C16.70736954 9.89633735 27.68793492 9.9610392 38.6875 10.4375 C49.93562875 10.91301267 61.18265057 11.24204916 72.4375 11.5 C73.32564392 11.52053436 74.21378784 11.54106873 75.12884521 11.56222534 C88.24906369 11.86018078 101.36992389 12.07042907 114.4921875 12.25 C116.01792939 12.27117678 117.54367097 12.29237634 119.06941223 12.31359863 C125.90813621 12.40820011 132.74685294 12.5002296 139.58575821 12.58079529 C142.44805436 12.61532829 145.31029535 12.65346852 148.17253494 12.69238281 C150.15350762 12.71805633 152.1345401 12.73897699 154.11557007 12.75976562 C159.83333577 12.83958611 165.36882953 12.97018113 171 14 C171 14.66 171 15.32 171 16 C164.07 16 157.14 16 150 16 C150.103125 18.041875 150.20625 20.08375 150.3125 22.1875 C150.28491842 28.53126324 150.28491842 28.53126324 148.0625 32.1875 C144.15437399 34.50047254 140.46162875 35.34873829 136 36 C136.4363758 28.92770249 137.78755945 22.73351473 140 16 C134.72 16 129.44 16 124 16 C123.87753906 17.1446875 123.75507813 18.289375 123.62890625 19.46875 C123.07312748 23.91498014 122.07146745 28.17088829 120.9375 32.5 C119.9784375 36.2125 119.9784375 36.2125 119 40 C113.72 40.99 108.44 41.98 103 43 C103.14308594 41.72253906 103.28617187 40.44507813 103.43359375 39.12890625 C103.99601563 34.0671093 104.53200669 29.00272874 105.0625 23.9375 C105.15337891 23.07189453 105.24425781 22.20628906 105.33789062 21.31445312 C105.55883568 19.2096608 105.77945279 17.10483405 106 15 C101.05 15 96.1 15 91 15 C90.814375 17.6915625 90.814375 17.6915625 90.625 20.4375 C90.19140799 26.05561356 89.63937383 31.65162378 89 37.25 C88.9170166 38.00079834 88.8340332 38.75159668 88.74853516 39.52514648 C88.11934827 44.88065173 88.11934827 44.88065173 87 46 C84.70583447 45.93545826 82.4135315 45.79816087 80.125 45.625 C78.86945313 45.53476563 77.61390625 45.44453125 76.3203125 45.3515625 C73 45 73 45 70 44 C70.61067354 33.9953484 71.27106232 23.99685967 72 14 C67.05 14 62.1 14 57 14 C56.90912109 16.29517578 56.90912109 16.29517578 56.81640625 18.63671875 C56.73197638 20.65365445 56.64732961 22.67058107 56.5625 24.6875 C56.52318359 25.69490234 56.48386719 26.70230469 56.44335938 27.74023438 C56.38051758 29.20493164 56.38051758 29.20493164 56.31640625 30.69921875 C56.27974854 31.59471436 56.24309082 32.49020996 56.20532227 33.4128418 C55.99938249 36.00778088 55.56232178 38.46054684 55 41 C54.34 41 53.68 41 53 41 C52.91435791 40.43490723 52.82871582 39.86981445 52.74047852 39.28759766 C52.35130182 36.73285367 51.95696515 34.17893253 51.5625 31.625 C51.42779297 30.73554688 51.29308594 29.84609375 51.15429688 28.9296875 C51.02216797 28.07890625 50.89003906 27.228125 50.75390625 26.3515625 C50.63345947 25.56604004 50.5130127 24.78051758 50.38891602 23.97119141 C50.07761762 21.93388316 50.07761762 21.93388316 49 20 C48.960008 18.00039988 48.95653201 15.99952758 49 14 C47.98687744 13.97494385 46.97375488 13.9498877 45.92993164 13.92407227 C42.13343921 13.82915355 38.33709423 13.72914713 34.54077148 13.62768555 C32.90473913 13.58465327 31.26867095 13.54295935 29.63256836 13.50268555 C12.89783459 13.08904092 12.89783459 13.08904092 5 12 C5.2165625 12.81984375 5.433125 13.6396875 5.65625 14.484375 C5.9346875 15.56203125 6.213125 16.6396875 6.5 17.75 C6.7784375 18.81734375 7.056875 19.8846875 7.34375 20.984375 C8 24 8 24 8 28 C7.34 28 6.68 28 6 28 C3.35478194 18.71605508 1.2303157 9.59970013 0 0 Z " fill="#624651" transform="translate(15,141)"/>
<path d="M0 0 C8.28774276 4.8192307 11.84449318 12.56867475 14.75 21.4375 C15.31719516 24.16087086 15.58932837 26.65252507 15.75 29.4375 C17.235 29.19 17.235 29.19 18.75 28.9375 C22.77732942 28.35275483 26.68474623 28.36617976 30.75 28.4375 C30.75 28.7675 30.75 29.0975 30.75 29.4375 C25.69997778 30.47340199 20.87583611 30.54001672 15.75 30.4375 C15.75 32.0875 15.75 33.7375 15.75 35.4375 C16.89597656 35.2209375 18.04195313 35.004375 19.22265625 34.78125 C20.75254447 34.49967548 22.28249581 34.2184437 23.8125 33.9375 C24.56466797 33.79441406 25.31683594 33.65132812 26.09179688 33.50390625 C30.72740175 32.661069 35.0389615 32.28734738 39.75 32.4375 C36.53660465 34.57976357 34.18016168 35.20777449 30.4375 36.0625 C29.32761719 36.32289062 28.21773438 36.58328125 27.07421875 36.8515625 C23.88489257 37.4137234 20.97976591 37.54499599 17.75 37.4375 C17.75 40.0775 17.75 42.7175 17.75 45.4375 C17.09 45.4375 16.43 45.4375 15.75 45.4375 C15.75 43.4575 15.75 41.4775 15.75 39.4375 C-4.76485719 43.36177536 -4.76485719 43.36177536 -25.25 47.4375 C-24.755 50.9025 -24.755 50.9025 -24.25 54.4375 C-24.91 54.4375 -25.57 54.4375 -26.25 54.4375 C-26.745 51.4675 -26.745 51.4675 -27.25 48.4375 C-28.39597656 48.72625 -29.54195312 49.015 -30.72265625 49.3125 C-32.25250068 49.68792195 -33.78245451 50.06289829 -35.3125 50.4375 C-36.06466797 50.62828125 -36.81683594 50.8190625 -37.59179688 51.015625 C-42.27773336 52.1516096 -46.42932546 52.64236266 -51.25 52.4375 C-51.25 53.0975 -51.25 53.7575 -51.25 54.4375 C-50.59 54.4375 -49.93 54.4375 -49.25 54.4375 C-48.92 60.0475 -48.59 65.6575 -48.25 71.4375 C-47.59 71.4375 -46.93 71.4375 -46.25 71.4375 C-45.59 79.3575 -44.93 87.2775 -44.25 95.4375 C-47.55 95.4375 -50.85 95.4375 -54.25 95.4375 C-54.90222541 91.50103184 -55.54557765 87.56316031 -56.1875 83.625 C-56.36990234 82.52478516 -56.55230469 81.42457031 -56.74023438 80.29101562 C-58.35884757 70.31447246 -59.41575638 60.54863897 -59.25 50.4375 C-58.59 50.4375 -57.93 50.4375 -57.25 50.4375 C-57.09789062 49.67050781 -56.94578125 48.90351562 -56.7890625 48.11328125 C-54.73775834 44.54692758 -52.87303292 44.2788213 -49.03125 43.22070312 C-48.2371875 43.02412109 -47.443125 42.82753906 -46.625 42.625 C-45.82320312 42.40908203 -45.02140625 42.19316406 -44.1953125 41.97070312 C-42.21839513 41.44117169 -40.2347495 40.93687487 -38.25 40.4375 C-38.25 38.14275036 -38.27881894 35.84671179 -38.390625 33.5546875 C-38.72486685 23.64680419 -37.05072959 15.53953758 -30.1640625 8.10546875 C-21.63166209 0.67009125 -11.19611098 -5.04795755 0 0 Z M-23.5 8.4375 C-29.28792113 15.97886641 -29.58291565 23.5528277 -28.671875 32.75 C-28.39497341 35.40013455 -28.39497341 35.40013455 -27.25 37.4375 C-19.92849106 36.76770896 -12.87089577 35.42079403 -5.6875 33.875 C-4.58341797 33.64103516 -3.47933594 33.40707031 -2.34179688 33.16601562 C0.35631255 32.59368938 3.05351875 32.01743998 5.75 31.4375 C4.55167439 17.93820937 4.55167439 17.93820937 -1.9375 6.5 C-9.02982721 2.08402268 -17.43254996 2.10104971 -23.5 8.4375 Z M2.75 6.4375 C3.75 8.4375 3.75 8.4375 3.75 8.4375 Z M3.75 8.4375 C3.94335938 9.27152344 4.13671875 10.10554687 4.3359375 10.96484375 C5.83641523 17.44958167 7.31776309 23.93734785 8.75 30.4375 C10.07 30.4375 11.39 30.4375 12.75 30.4375 C11.76924084 22.73780871 9.9821546 16.02989466 5.75 9.4375 C5.09 9.1075 4.43 8.7775 3.75 8.4375 Z M-31.25 14.4375 C-30.25 16.4375 -30.25 16.4375 -30.25 16.4375 Z M-32.25 16.4375 C-35.86608709 22.91632271 -35.76350321 29.12995425 -35.25 36.4375 C-34.92 37.4275 -34.59 38.4175 -34.25 39.4375 C-32.93 39.1075 -31.61 38.7775 -30.25 38.4375 C-30.415 37.40625 -30.58 36.375 -30.75 35.3125 C-31.5527475 29.04880822 -31.32965938 22.73944211 -31.25 16.4375 C-31.58 16.4375 -31.91 16.4375 -32.25 16.4375 Z " fill="#D2352E" transform="translate(110.25,5.5625)"/>
<path d="M0 0 C0.66 0.33 1.32 0.66 2 1 C1.34 1.99 0.68 2.98 0 4 C-0.66 4 -1.32 4 -2 4 C-1.54647287 7.91723834 -1.08626696 11.83366612 -0.625 15.75 C-0.49867187 16.84183594 -0.37234375 17.93367188 -0.2421875 19.05859375 C0.50925288 25.40826494 1.4129499 31.6817242 2.61962891 37.96191406 C3.11837888 41.94551142 3 45.98530207 3 50 C-11.19 50.33 -25.38 50.66 -40 51 C-39.34969128 44.49691284 -38.75391997 39.31804765 -37.125 33.1875 C-36.76150456 31.8115976 -36.3995483 30.43528774 -36.0390625 29.05859375 C-35.86149414 28.3816748 -35.68392578 27.70475586 -35.50097656 27.00732422 C-34.4835773 22.93078584 -33.70189664 18.79667469 -32.90625 14.671875 C-31.83067427 11.50078103 -30.5997016 10.08260767 -28 8 C-23.59179238 6.60406759 -19.52689298 5.99192222 -14.92578125 5.80078125 C-14.2080957 5.76944092 -13.49041016 5.73810059 -12.75097656 5.70581055 C-11.30430476 5.6523915 -9.85677332 5.61835881 -8.40917969 5.60473633 C-6.14325956 5.57396324 -6.14325956 5.57396324 -3 5 C-1.49907967 3.12597985 -1.49907967 3.12597985 -1 1 C-0.67 0.67 -0.34 0.34 0 0 Z " fill="#76B9A2" transform="translate(53,52)"/>
<path d="M0 0 C6.04922426 0.0043941 12.09842807 0.00120085 18.14765108 -0.00362813 C24.06108538 -0.00815667 29.97451078 -0.00881427 35.88794625 -0.00618947 C39.38561731 -0.0046388 42.88327435 -0.00440167 46.38094449 -0.00772595 C50.23114447 -0.01113673 54.08131033 -0.0064201 57.9315083 -0.00082517 C59.0749722 -0.0028494 60.2184361 -0.00487363 61.39655042 -0.0069592 C62.95856938 -0.00272946 62.95856938 -0.00272946 64.55214429 0.00158572 C65.45697112 0.00196275 66.36179795 0.00233977 67.29404378 0.00272822 C69.58336377 0.12856936 69.58336377 0.12856936 72.58336377 1.12856936 C72.58336377 1.78856936 72.58336377 2.44856936 72.58336377 3.12856936 C56.23631039 3.33038484 39.91701799 2.71425065 23.58336377 2.12856936 C23.46090283 3.27325686 23.3384419 4.41794436 23.21227002 5.59731936 C22.65649125 10.04354951 21.65483122 14.29945765 20.52086377 18.62856936 C19.56180127 22.34106936 19.56180127 22.34106936 18.58336377 26.12856936 C11.98336377 26.12856936 5.38336377 26.12856936 -1.41663623 26.12856936 C-1.08663623 18.20856936 -0.75663623 10.28856936 -0.41663623 2.12856936 C-5.03663623 2.12856936 -9.65663623 2.12856936 -14.41663623 2.12856936 C-14.47722217 3.11856936 -14.5378081 4.10856936 -14.60022998 5.12856936 C-14.68473753 6.46191081 -14.76938023 7.79524369 -14.85413623 9.12856936 C-14.97595263 11.07763186 -14.97595263 11.07763186 -15.10022998 13.06606936 C-15.35410658 17.12809499 -15.90812095 21.06044714 -16.41663623 25.12856936 C-23.34663623 25.12856936 -30.27663623 25.12856936 -37.41663623 25.12856936 C-37.41663623 17.53856936 -37.41663623 9.94856936 -37.41663623 2.12856936 C-39.06591113 2.1891553 -40.71518603 2.24974124 -42.41443896 2.31216311 C-48.55891072 2.53744559 -54.70345924 2.76057192 -60.84803271 2.98306155 C-63.50268453 3.07930026 -66.15729711 3.17648028 -68.8118999 3.27407718 C-72.63712246 3.41461019 -76.46241647 3.55303686 -80.28772998 3.69106936 C-81.46621005 3.73481692 -82.64469012 3.77856448 -83.85888171 3.82363772 C-90.04987644 4.04487882 -96.22170921 4.17460691 -102.41663623 4.12856936 C-102.3934331 5.33255374 -102.37022998 6.53653811 -102.34632373 7.77700686 C-102.3275676 9.35252151 -102.30936723 10.92804285 -102.29163623 12.50356936 C-102.26649951 13.69466311 -102.26649951 13.69466311 -102.24085498 14.90981936 C-102.2232815 16.98348952 -102.31328455 19.05740178 -102.41663623 21.12856936 C-103.07663623 21.78856936 -103.73663623 22.44856936 -104.41663623 23.12856936 C-106.19825301 16.87877081 -105.71225294 10.44470086 -104.41663623 4.12856936 C-107.38663623 4.12856936 -110.35663623 4.12856936 -113.41663623 4.12856936 C-113.41663623 3.46856936 -113.41663623 2.80856936 -113.41663623 2.12856936 C-108.36238798 1.31681069 -103.40412623 0.93076666 -98.28431201 0.81655765 C-97.48247359 0.79606734 -96.68063518 0.77557704 -95.85449862 0.75446582 C-93.14874969 0.68834068 -90.44291702 0.63028981 -87.73694873 0.57388186 C-86.77786735 0.55294593 -85.81878596 0.53200999 -84.83064151 0.51043963 C-56.55777364 -0.09062723 -28.2777424 -0.02297665 0 0 Z " fill="#D8332B" transform="translate(125.4166362285614,113.87143063545227)"/>
<path d="M0 0 C3.53284575 2.47778775 5.37912399 5.16862197 6.7265625 9.2109375 C7.29040379 14.90356588 7.03376156 19.36037888 3.7265625 24.2109375 C-1.04995882 28.77978398 -4.55059999 31.03527056 -11.1484375 31.4609375 C-17.32944883 31.22900462 -21.70387299 30.20076234 -26.1484375 25.7109375 C-29.81649419 21.1589122 -30.76494512 16.99560405 -30.2734375 11.2109375 C-28.72993488 5.98017863 -26.5453448 2.60904558 -22.2734375 -0.7890625 C-14.62685885 -3.87710388 -7.22574113 -4.05908167 0 0 Z " fill="#494057" transform="translate(47.2734375,237.7890625)"/>
<path d="M0 0 C4.01742576 2.28059927 6.5569314 5.1763628 8.625 9.3125 C9.15339495 15.53130209 9.34993456 21.04621321 5.625 26.3125 C1.13649825 30.67969089 -3.06482357 32.12619545 -9.25 32.625 C-14.32197383 32.46013661 -19.1177249 31.35745715 -22.953125 27.8828125 C-27.34650064 22.80770615 -27.72902426 18.49726566 -27.65234375 12.0390625 C-27.25807023 8.16296511 -26.00589377 6.15109591 -23.375 3.3125 C-16.27776829 -2.04663415 -8.33107384 -3.87637207 0 0 Z " fill="#4E465D" transform="translate(169.375,236.6875)"/>
<path d="M0 0 C0.97130859 0.14888672 1.94261719 0.29777344 2.94335938 0.45117188 C7.44959511 1.23875934 10.26699884 1.90538953 13.984375 4.6796875 C15.93529459 7.4893452 16.40091432 8.43496701 15.875 11.75 C15.07320721 16.06956835 14.02887879 19.17653068 10.8125 22.3125 C4.47861835 23.34177659 -2.12312896 21.79534021 -8.3125 20.5 C-9.16714844 20.33435547 -10.02179688 20.16871094 -10.90234375 19.99804688 C-16.00355522 18.95978187 -20.48021855 17.53857212 -25.1875 15.3125 C-25.53399648 9.53755861 -25.48476646 5.31946018 -22.1875 0.3125 C-15.88011344 -3.89242438 -7.08722089 -1.24228654 0 0 Z " fill="#494058" transform="translate(243.1875,76.6875)"/>
<path d="M0 0 C3.96 0 7.92 0 12 0 C11.53268622 5.7635366 10.87780184 10.52754893 9 16 C8.24299729 18.77980196 7.55823442 21.57626938 6.875 24.375 C6.69324219 25.11105469 6.51148438 25.84710938 6.32421875 26.60546875 C5.88064438 28.40311223 5.44001734 30.20148254 5 32 C4.34 32 3.68 32 3 32 C3 35.3 3 38.6 3 42 C0.4580411 42.05434116 -2.08273682 42.0938339 -4.625 42.125 C-5.33785156 42.14175781 -6.05070313 42.15851563 -6.78515625 42.17578125 C-11.2612164 42.21684602 -14.77949278 41.69086567 -19 40 C-19 37.36 -19 34.72 -19 32 C-18.34 32 -17.68 32 -17 32 C-17.061875 31.13375 -17.12375 30.2675 -17.1875 29.375 C-16.95574584 25.20342515 -16.55113861 23.35292502 -14 20 C-11.2061749 18.74277871 -8.4371215 17.81238992 -5.49609375 16.95703125 C-2.68604734 16.15558532 -2.68604734 16.15558532 -1 13 C-0.5396236 9.80193335 -0.5396236 9.80193335 -0.375 6.3125 C-0.30023438 5.13300781 -0.22546875 3.95351562 -0.1484375 2.73828125 C-0.09945312 1.83464844 -0.05046875 0.93101562 0 0 Z " fill="#FAE074" transform="translate(165,157)"/>
<path d="M0 0 C0.66 0.33 1.32 0.66 2 1 C1.34 1.99 0.68 2.98 0 4 C-0.66 4 -1.32 4 -2 4 C-1.90912109 4.71542969 -1.81824219 5.43085937 -1.72460938 6.16796875 C-1.31130979 9.44469265 -0.90559988 12.72231448 -0.5 16 C-0.35691406 17.12535156 -0.21382812 18.25070313 -0.06640625 19.41015625 C0.65976893 25.323297 1.17521659 31.04263601 1 37 C0.67 37 0.34 37 0 37 C-1.61626656 31.94752447 -2.34166823 27.3985816 -2.625 22.0625 C-2.68300781 21.03672852 -2.68300781 21.03672852 -2.7421875 19.99023438 C-2.83522412 18.32720487 -2.91863787 16.66364153 -3 15 C-5.37531394 14.9456035 -7.74935883 14.90614136 -10.125 14.875 C-10.79015625 14.85824219 -11.4553125 14.84148437 -12.140625 14.82421875 C-16.5299849 14.78118581 -19.89617455 15.53035247 -24 17 C-24.08564209 17.81678223 -24.17128418 18.63356445 -24.25952148 19.47509766 C-24.65030884 23.19193136 -25.0438769 26.90846558 -25.4375 30.625 C-25.57220703 31.91019531 -25.70691406 33.19539063 -25.84570312 34.51953125 C-25.97783203 35.76347656 -26.10996094 37.00742188 -26.24609375 38.2890625 C-26.36654053 39.43068848 -26.4869873 40.57231445 -26.61108398 41.74853516 C-26.98246548 44.85340569 -27.45955861 47.9205038 -28 51 C-31.96 51 -35.92 51 -40 51 C-39.52655267 43.42484264 -37.96427505 36.3688712 -36.0390625 29.05859375 C-34.79219191 24.30532392 -33.83683082 19.49620187 -32.90625 14.671875 C-31.83067427 11.50078103 -30.5997016 10.08260767 -28 8 C-23.59179238 6.60406759 -19.52689298 5.99192222 -14.92578125 5.80078125 C-14.2080957 5.76944092 -13.49041016 5.73810059 -12.75097656 5.70581055 C-11.30430476 5.6523915 -9.85677332 5.61835881 -8.40917969 5.60473633 C-6.14325956 5.57396324 -6.14325956 5.57396324 -3 5 C-1.49907967 3.12597985 -1.49907967 3.12597985 -1 1 C-0.67 0.67 -0.34 0.34 0 0 Z " fill="#79B4A3" transform="translate(53,52)"/>
<path d="M0 0 C6.27 0 12.54 0 19 0 C19 4.87546653 18.99440646 9.05573815 18.37890625 13.77734375 C18.24806641 14.78474609 18.11722656 15.79214844 17.98242188 16.83007812 C17.84384766 17.85552734 17.70527344 18.88097656 17.5625 19.9375 C17.42779297 20.99001953 17.29308594 22.04253906 17.15429688 23.12695312 C16.12948754 30.87051246 16.12948754 30.87051246 15 32 C12.70583447 31.93545826 10.4135315 31.79816087 8.125 31.625 C6.24167969 31.48964844 6.24167969 31.48964844 4.3203125 31.3515625 C1 31 1 31 -2 30 C-1.38932646 19.9953484 -0.72893768 9.99685967 0 0 Z " fill="#D3372F" transform="translate(87,155)"/>
<path d="M0 0 C8.28774276 4.8192307 11.84449318 12.56867475 14.75 21.4375 C15.31719516 24.16087086 15.58932837 26.65252507 15.75 29.4375 C16.74 29.2725 17.73 29.1075 18.75 28.9375 C22.77732942 28.35275483 26.68474623 28.36617976 30.75 28.4375 C30.75 28.7675 30.75 29.0975 30.75 29.4375 C25.08357449 30.66267308 19.51291482 30.52978867 13.75 30.4375 C13.255 31.4275 13.255 31.4275 12.75 32.4375 C5.875 31.5625 5.875 31.5625 4.75 30.4375 C4.15681606 26.95018297 3.60600795 23.462637 3.11914062 19.95898438 C2.3194062 14.92022051 1.05118916 11.49007924 -2.25 7.4375 C-6.96810147 4.5696344 -10.76106132 3.94885394 -16.10546875 4.8046875 C-21.01872604 6.25450113 -23.56752211 9.26081399 -26.0625 13.5625 C-28.2796709 19.53581924 -28.37502915 26.19663359 -28.125 32.5 C-28.16625 33.469375 -28.2075 34.43875 -28.25 35.4375 C-29.24 36.0975 -30.23 36.7575 -31.25 37.4375 C-32.48839599 30.78112157 -32.34139136 24.1903064 -32.25 17.4375 C-34.11132673 22.14211323 -34.5009496 26.3132696 -34.375 31.3125 C-34.36597656 32.00085937 -34.35695313 32.68921875 -34.34765625 33.3984375 C-34.32432513 35.07827838 -34.28846326 36.75793746 -34.25 38.4375 C-35.735 38.9325 -35.735 38.9325 -37.25 39.4375 C-39.83943873 31.6691838 -38.92624194 22.99145765 -35.49609375 15.64453125 C-28.7370641 3.67320914 -13.76122761 -6.20448412 0 0 Z M2.75 6.4375 C3.75 8.4375 3.75 8.4375 3.75 8.4375 Z M3.75 8.4375 C3.94335938 9.27152344 4.13671875 10.10554687 4.3359375 10.96484375 C5.83641523 17.44958167 7.31776309 23.93734785 8.75 30.4375 C10.07 30.4375 11.39 30.4375 12.75 30.4375 C11.76924084 22.73780871 9.9821546 16.02989466 5.75 9.4375 C5.09 9.1075 4.43 8.7775 3.75 8.4375 Z M-31.25 14.4375 C-30.25 16.4375 -30.25 16.4375 -30.25 16.4375 Z " fill="#8E7680" transform="translate(110.25,5.5625)"/>
<path d="M0 0 C7.92 0 15.84 0 24 0 C24 8.69230769 24 8.69230769 21 14 C20.4740625 15.5778125 20.4740625 15.5778125 19.9375 17.1875 C19 20 19 20 17 23 C14.84521484 23.34057617 14.84521484 23.34057617 12.2109375 23.29296875 C11.26992187 23.28330078 10.32890625 23.27363281 9.359375 23.26367188 C7.88210937 23.2259668 7.88210937 23.2259668 6.375 23.1875 C4.88613281 23.16719727 4.88613281 23.16719727 3.3671875 23.14648438 C0.91091928 23.11105743 -1.54427285 23.06166196 -4 23 C-3.85871442 21.38761587 -3.71180764 19.77572358 -3.5625 18.1640625 C-3.48128906 17.2663916 -3.40007812 16.3687207 -3.31640625 15.44384766 C-2.96184816 12.70532411 -2.06798628 10.53646742 -1 8 C-0.67 5.36 -0.34 2.72 0 0 Z " fill="#FCE06F" transform="translate(164,117)"/>
<path d="M0 0 C7.59 0 15.18 0 23 0 C22.51521036 7.75663423 21.96406888 15.28744894 21 23 C14.07 23 7.14 23 0 23 C0 15.41 0 7.82 0 0 Z " fill="#D13830" transform="translate(88,116)"/>
<path d="M0 0 C0.78375 0.495 1.5675 0.99 2.375 1.5 C2.375 5.46 2.375 9.42 2.375 13.5 C1.715 13.5 1.055 13.5 0.375 13.5 C0.148125 12.88125 -0.07875 12.2625 -0.3125 11.625 C-2.0878632 8.75060243 -3.35988994 8.29813802 -6.625 7.5 C-10.28255394 7.56977074 -10.28255394 7.56977074 -13.625 8.5 C-16.08393906 12.1884086 -16.3071084 15.21739539 -15.625 19.5 C-14.20833333 22.08333333 -14.20833333 22.08333333 -11.625 23.5 C-7.97778304 24.30765878 -7.97778304 24.30765878 -4.625 24.5 C-5.12 25.098125 -5.615 25.69625 -6.125 26.3125 C-7.90776418 28.47029994 -7.90776418 28.47029994 -7.625 31.5 C-12.24686951 31.86974956 -15.68041223 31.94556027 -19.9375 29.9375 C-23.98987164 26.26209317 -26.24016545 23.20169561 -27.0078125 17.8125 C-27.19262599 13.27840901 -26.95653102 10.20131562 -25 6.0625 C-18.14645632 -1.33211292 -9.43020718 -3.90215469 0 0 Z " fill="#4C435A" transform="translate(168.625,236.5)"/>
<path d="M0 0 C0.33 0 0.66 0 1 0 C1 2.64 1 5.28 1 8 C2.68029297 8.14695312 2.68029297 8.14695312 4.39453125 8.296875 C5.86728484 8.44696454 7.33993629 8.59805877 8.8125 8.75 C9.55048828 8.811875 10.28847656 8.87375 11.04882812 8.9375 C16.53201578 9.53295929 16.53201578 9.53295929 18.9375 11.93359375 C21.46821097 16.85545443 22.32471051 20.37168441 22 26 C20.2227831 27.7772169 17.847528 27.11988099 15.48136902 27.12442017 C14.29454277 27.11902725 14.29454277 27.11902725 13.08374023 27.11352539 C12.25454071 27.11367142 11.42534119 27.11381744 10.5710144 27.1139679 C7.81684802 27.11326851 5.06274839 27.10547493 2.30859375 27.09765625 C0.40430234 27.09579216 -1.49998955 27.09436822 -3.40428162 27.09336853 C-8.42667963 27.08954263 -13.44904892 27.07971173 -18.47143555 27.06866455 C-23.5922812 27.05845198 -28.71313148 27.05387124 -33.83398438 27.04882812 C-43.88933557 27.03808953 -53.9446654 27.02101224 -64 27 C-64 26.67 -64 26.34 -64 26 C-46.84 26 -29.68 26 -12 26 C-12 24.02 -12 22.04 -12 20 C-10.52031676 20.14049518 -9.04125484 20.28754826 -7.5625 20.4375 C-6.32693359 20.55931641 -6.32693359 20.55931641 -5.06640625 20.68359375 C-3 21 -3 21 -2 22 C0.18639453 22.07258946 2.37500389 22.08373783 4.5625 22.0625 C5.76003906 22.05347656 6.95757812 22.04445313 8.19140625 22.03515625 C9.58166016 22.01775391 9.58166016 22.01775391 11 22 C7.37 21.01 3.74 20.02 0 19 C0 12.73 0 6.46 0 0 Z " fill="#F5DD7F" transform="translate(173,74)"/>
<path d="M0 0 C6.04922426 0.0043941 12.09842807 0.00120085 18.14765108 -0.00362813 C24.06108538 -0.00815667 29.97451078 -0.00881427 35.88794625 -0.00618947 C39.38561731 -0.0046388 42.88327435 -0.00440167 46.38094449 -0.00772595 C50.23114447 -0.01113673 54.08131033 -0.0064201 57.9315083 -0.00082517 C59.0749722 -0.0028494 60.2184361 -0.00487363 61.39655042 -0.0069592 C62.95856938 -0.00272946 62.95856938 -0.00272946 64.55214429 0.00158572 C65.45697112 0.00196275 66.36179795 0.00233977 67.29404378 0.00272822 C69.58336377 0.12856936 69.58336377 0.12856936 72.58336377 1.12856936 C72.58336377 1.78856936 72.58336377 2.44856936 72.58336377 3.12856936 C71.894104 3.12764757 71.20484424 3.12672578 70.49469781 3.12577605 C53.54166401 3.10346598 36.588635 3.08703581 19.63558984 3.07675719 C11.4364537 3.07165148 3.2373275 3.0647214 -4.96180224 3.05312991 C-12.12750997 3.04300445 -19.2932105 3.03667464 -26.45892519 3.03448087 C-30.23551092 3.03320326 -34.01207607 3.03031379 -37.78865504 3.02283931 C-59.34851705 2.98180768 -80.86892692 3.40097179 -102.41663623 4.12856936 C-102.3934331 5.33255374 -102.37022998 6.53653811 -102.34632373 7.77700686 C-102.3275676 9.35252151 -102.30936723 10.92804285 -102.29163623 12.50356936 C-102.26649951 13.69466311 -102.26649951 13.69466311 -102.24085498 14.90981936 C-102.2232815 16.98348952 -102.31328455 19.05740178 -102.41663623 21.12856936 C-103.07663623 21.78856936 -103.73663623 22.44856936 -104.41663623 23.12856936 C-106.19825301 16.87877081 -105.71225294 10.44470086 -104.41663623 4.12856936 C-107.38663623 4.12856936 -110.35663623 4.12856936 -113.41663623 4.12856936 C-113.41663623 3.46856936 -113.41663623 2.80856936 -113.41663623 2.12856936 C-108.36238798 1.31681069 -103.40412623 0.93076666 -98.28431201 0.81655765 C-97.48247359 0.79606734 -96.68063518 0.77557704 -95.85449862 0.75446582 C-93.14874969 0.68834068 -90.44291702 0.63028981 -87.73694873 0.57388186 C-86.77786735 0.55294593 -85.81878596 0.53200999 -84.83064151 0.51043963 C-56.55777364 -0.09062723 -28.2777424 -0.02297665 0 0 Z " fill="#532F3E" transform="translate(125.4166362285614,113.87143063545227)"/>
<path d="M0 0 C5.61 0.33 11.22 0.66 17 1 C15 18.14285714 15 18.14285714 13 25 C5.08 26.485 5.08 26.485 -3 28 C-2.85691406 26.72253906 -2.71382813 25.44507813 -2.56640625 24.12890625 C-2.00398437 19.0671093 -1.46799331 14.00272874 -0.9375 8.9375 C-0.84662109 8.07189453 -0.75574219 7.20628906 -0.66210938 6.31445312 C-0.44116432 4.2096608 -0.22054721 2.10483405 0 0 Z " fill="#D6342C" transform="translate(121,156)"/>
<path d="M0 0 C0.99 0.495 0.99 0.495 2 1 C2.6328125 3.06640625 2.6328125 3.06640625 3.125 5.5625 C3.29257812 6.38878906 3.46015625 7.21507812 3.6328125 8.06640625 C3.75398438 8.70449219 3.87515625 9.34257812 4 10 C4.84087158 9.99214478 4.84087158 9.99214478 5.69873047 9.98413086 C17.74100699 9.88809413 29.73753682 10.04744614 41.76855469 10.57177734 C53.38362838 11.05730037 65.00293538 11.30797001 76.625 11.5625 C77.63339935 11.58464569 78.64179871 11.60679138 79.68075562 11.62960815 C85.45378015 11.75583661 91.22686096 11.87912709 97 12 C97 12.33 97 12.66 97 13 C70.24874212 14.19388403 70.24874212 14.19388403 57 14 C56.96241577 14.96039185 56.96241577 14.96039185 56.92407227 15.94018555 C56.8076454 18.85613726 56.68513133 21.7718029 56.5625 24.6875 C56.52318359 25.69490234 56.48386719 26.70230469 56.44335938 27.74023438 C56.38051758 29.20493164 56.38051758 29.20493164 56.31640625 30.69921875 C56.27974854 31.59471436 56.24309082 32.49020996 56.20532227 33.4128418 C55.99938249 36.00778088 55.56232178 38.46054684 55 41 C54.34 41 53.68 41 53 41 C52.91435791 40.43490723 52.82871582 39.86981445 52.74047852 39.28759766 C52.35130182 36.73285367 51.95696515 34.17893253 51.5625 31.625 C51.42779297 30.73554688 51.29308594 29.84609375 51.15429688 28.9296875 C51.02216797 28.07890625 50.89003906 27.228125 50.75390625 26.3515625 C50.63345947 25.56604004 50.5130127 24.78051758 50.38891602 23.97119141 C50.07761762 21.93388316 50.07761762 21.93388316 49 20 C48.960008 18.00039988 48.95653201 15.99952758 49 14 C47.98687744 13.97494385 46.97375488 13.9498877 45.92993164 13.92407227 C42.13343921 13.82915355 38.33709423 13.72914713 34.54077148 13.62768555 C32.90473913 13.58465327 31.26867095 13.54295935 29.63256836 13.50268555 C12.89783459 13.08904092 12.89783459 13.08904092 5 12 C5.2165625 12.81984375 5.433125 13.6396875 5.65625 14.484375 C5.9346875 15.56203125 6.213125 16.6396875 6.5 17.75 C6.7784375 18.81734375 7.056875 19.8846875 7.34375 20.984375 C8 24 8 24 8 28 C7.34 28 6.68 28 6 28 C3.35478194 18.71605508 1.2303157 9.59970013 0 0 Z " fill="#50505C" transform="translate(15,141)"/>
<path d="M0 0 C2.5 1.8125 2.5 1.8125 3.375 4.5 C3.41625 5.263125 3.4575 6.02625 3.5 6.8125 C-0.34575603 7.45345934 -3.7341602 7.82879322 -7.625 7.5625 C-11.56119548 7.49220027 -11.56119548 7.49220027 -14.5 9.8125 C-17.18652977 13.84229465 -16.90344574 16.05184031 -16.5 20.8125 C-17.49 20.8125 -18.48 20.8125 -19.5 20.8125 C-19.5 21.8025 -19.5 22.7925 -19.5 23.8125 C-20.16 23.8125 -20.82 23.8125 -21.5 23.8125 C-21.83 24.8025 -22.16 25.7925 -22.5 26.8125 C-24.9869212 25.04758818 -26.30832003 23.53760516 -27.09375 20.56640625 C-27.86018379 14.84428125 -27.50043094 10.91323259 -24.5 5.8125 C-18.43002384 -1.7749702 -8.88343104 -3.01402125 0 0 Z " fill="#4E445C" transform="translate(44.5,236.1875)"/>
<path d="M0 0 C0 6.93 0 13.86 0 21 C-6.27 21 -12.54 21 -19 21 C-18.505 19.515 -18.505 19.515 -18 18 C-17.85596652 16.66636297 -17.75409577 15.32781954 -17.68359375 13.98828125 C-17.64169922 13.23095703 -17.59980469 12.47363281 -17.55664062 11.69335938 C-17.51732422 10.90767578 -17.47800781 10.12199219 -17.4375 9.3125 C-17.39431641 8.51521484 -17.35113281 7.71792969 -17.30664062 6.89648438 C-17.20072632 4.93118553 -17.09987449 2.96561504 -17 1 C-16.38640625 0.92330078 -15.7728125 0.84660156 -15.140625 0.76757812 C-14.43421875 0.67927734 -13.7278125 0.59097656 -13 0.5 C-8.56879255 -0.05390093 -4.57720866 0 0 0 Z " fill="#7AB7A3" transform="translate(40,117)"/>
<path d="M0 0 C1 1 1 1 1.0625 3.5625 C1.041875 4.366875 1.02125 5.17125 1 6 C-0.258125 6.24234375 -1.51625 6.4846875 -2.8125 6.734375 C-12.56474468 8.63659855 -22.21020223 10.70763584 -31.8125 13.265625 C-35 14 -35 14 -39 14 C-39 11.69 -39 9.38 -39 7 C-39.66 7 -40.32 7 -41 7 C-40.67 6.01 -40.34 5.02 -40 4 C-40 4.66 -40 5.32 -40 6 C-38.76866333 5.72736328 -38.76866333 5.72736328 -37.51245117 5.44921875 C-34.41491333 4.76915978 -31.31533768 4.09954165 -28.21411133 3.43652344 C-26.88185175 3.14956041 -25.5504335 2.85865803 -24.2199707 2.56347656 C-16.17191288 0.78108184 -8.27757784 -0.8535066 0 0 Z " fill="#CB4742" transform="translate(123,37)"/>
<path d="M0 0 C4.95 0.33 9.9 0.66 15 1 C15 8.26 15 15.52 15 23 C11.37 22.67 7.74 22.34 4 22 C3.32810344 19.08444885 2.66230692 16.16773049 2 13.25 C1.80921875 12.425 1.6184375 11.6 1.421875 10.75 C1.24140625 9.95078125 1.0609375 9.1515625 0.875 8.328125 C0.70742188 7.5949707 0.53984375 6.86181641 0.3671875 6.10644531 C0 4 0 4 0 0 Z " fill="#78B9A3" transform="translate(25,153)"/>
<path d="M0 0 C2.97 0 5.94 0 9 0 C10.79203512 8.98271694 12.43708547 17.83808082 13 27 C11.02006459 26.69240822 9.04106401 26.3787932 7.0625 26.0625 C5.96035156 25.88847656 4.85820313 25.71445313 3.72265625 25.53515625 C1 25 1 25 0 24 C-0.08726223 22.21928754 -0.10699041 20.4351686 -0.09765625 18.65234375 C-0.09443359 17.57275391 -0.09121094 16.49316406 -0.08789062 15.38085938 C-0.07951172 14.24455078 -0.07113281 13.10824219 -0.0625 11.9375 C-0.05798828 10.79732422 -0.05347656 9.65714844 -0.04882812 8.48242188 C-0.03699747 5.65489649 -0.0205141 2.8274736 0 0 Z " fill="#7CB69F" transform="translate(55,155)"/>
<path d="M0 0 C4.62 0 9.24 0 14 0 C14 6.93 14 13.86 14 21 C10.04 21 6.08 21 2 21 C0.79556805 13.94546999 -0.28100502 7.16562789 0 0 Z " fill="#B2433F" transform="translate(59,117)"/>
<path d="M0 0 C0.66 0 1.32 0 2 0 C2 1.65 2 3.3 2 5 C3.14597656 4.7834375 4.29195313 4.566875 5.47265625 4.34375 C7.00254447 4.06217548 8.53249581 3.7809437 10.0625 3.5 C10.81466797 3.35691406 11.56683594 3.21382812 12.34179688 3.06640625 C16.97740175 2.223569 21.2889615 1.84984738 26 2 C22.78660465 4.14226357 20.43016168 4.77027449 16.6875 5.625 C15.57761719 5.88539062 14.46773438 6.14578125 13.32421875 6.4140625 C10.13489257 6.9762234 7.22976591 7.10749599 4 7 C4 9.64 4 12.28 4 15 C3.34 15 2.68 15 2 15 C2 13.02 2 11.04 2 9 C-18.51485719 12.92427536 -18.51485719 12.92427536 -39 17 C-38.67 19.31 -38.34 21.62 -38 24 C-38.66 24 -39.32 24 -40 24 C-40.33 22.02 -40.66 20.04 -41 18 C-42.09957031 18.30035156 -43.19914062 18.60070312 -44.33203125 18.91015625 C-52.83853502 21.13284511 -60.19444796 22.74969933 -69 21 C-69 20.67 -69 20.34 -69 20 C-67.2984375 19.80083984 -67.2984375 19.80083984 -65.5625 19.59765625 C-64.04166481 19.41928669 -62.52083158 19.24090038 -61 19.0625 C-60.25621094 18.97548828 -59.51242188 18.88847656 -58.74609375 18.79882812 C-53.82778708 18.22146169 -48.91315228 17.61972716 -44 17 C-44 12.71 -44 8.42 -44 4 C-43.34 4.33 -42.68 4.66 -42 5 C-42 5.99 -42 6.98 -42 8 C-41.34 8 -40.68 8 -40 8 C-40 10.31 -40 12.62 -40 15 C-39.21463867 14.79318604 -38.42927734 14.58637207 -37.62011719 14.37329102 C-34.64750914 13.59563474 -31.67272298 12.82707965 -28.69628906 12.06420898 C-26.79837152 11.57496908 -24.90304843 11.07569909 -23.0078125 10.57617188 C-15.31900644 8.61350296 -7.93157398 7.3520854 0 7 C0 4.69 0 2.38 0 0 Z " fill="#772C38" transform="translate(124,36)"/>
<path d="M0 0 C-0.66 0.66 -1.32 1.32 -2 2 C-1.01 2.66 -0.02 3.32 1 4 C0.13117188 4.08636719 -0.73765625 4.17273438 -1.6328125 4.26171875 C-10.98447753 5.31798019 -10.98447753 5.31798019 -18 11 C-21.9289914 17.77412311 -22.18063133 25.35737331 -21.875 33.0625 C-21.91625 34.031875 -21.9575 35.00125 -22 36 C-22.99 36.66 -23.98 37.32 -25 38 C-26.23839599 31.34362157 -26.09139136 24.7528064 -26 18 C-27.86132673 22.70461323 -28.2509496 26.8757696 -28.125 31.875 C-28.11597656 32.56335937 -28.10695313 33.25171875 -28.09765625 33.9609375 C-28.07432513 35.64077838 -28.03846326 37.32043746 -28 39 C-29.485 39.495 -29.485 39.495 -31 40 C-33.59015306 32.22954082 -32.66894714 23.56457956 -29.25390625 16.2109375 C-24.99567307 8.70265096 -18.31526239 2.48827347 -9.875 0.125 C-6.57744183 -0.01837209 -3.30011964 -0.06600239 0 0 Z M-25 15 C-24 17 -24 17 -24 17 Z " fill="#787381" transform="translate(104,5)"/>
<path d="M0 0 C2.5625 2 2.5625 2 4 5 C4.32279973 8.22799726 4.11320284 10.94310967 3 14 C-0.04447073 16.33645428 -2.32515752 16.87604934 -6.0625 17.5625 C-9 17 -9 17 -11.875 14.375 C-14.19346562 10.69273108 -14.81146283 9.23763922 -14 5 C-10.07078071 -0.89382893 -6.83686817 -1.91486248 0 0 Z " fill="#CCCBCE" transform="translate(41,244)"/>
<path d="M0 0 C2.31 0.33 4.62 0.66 7 1 C6.67 3.97 6.34 6.94 6 10 C-2.34067679 12.13898002 -10.39691968 13.55046968 -19 14 C-20.03901761 17.7355157 -20.14650063 21.1177333 -20 25 C-19.67 25.33 -19.34 25.66 -19 26 C-18.91330568 27.4887186 -18.89296506 28.981445 -18.90234375 30.47265625 C-18.90556641 31.37177734 -18.90878906 32.27089844 -18.91210938 33.19726562 C-18.92048828 34.14279297 -18.92886719 35.08832031 -18.9375 36.0625 C-18.94201172 37.01189453 -18.94652344 37.96128906 -18.95117188 38.93945312 C-18.9629989 41.29303065 -18.97947975 43.64648477 -19 46 C-19.33 46 -19.66 46 -20 46 C-20.50943785 42.18870032 -21.0058065 38.37580386 -21.5 34.5625 C-21.71462891 32.95858398 -21.71462891 32.95858398 -21.93359375 31.32226562 C-22.7257749 25.15456951 -23.15691598 19.2177959 -23 13 C-22.34 13 -21.68 13 -21 13 C-20.8453125 12.23300781 -20.690625 11.46601562 -20.53125 10.67578125 C-18.50155342 7.12899003 -16.69194224 6.84601333 -12.87890625 5.78320312 C-12.09386719 5.58662109 -11.30882812 5.39003906 -10.5 5.1875 C-9.71496094 4.97158203 -8.92992188 4.75566406 -8.12109375 4.53320312 C-2.44580853 3 -2.44580853 3 0 3 C0 2.01 0 1.02 0 0 Z " fill="#BD3C38" transform="translate(74,43)"/>
<path d="M0 0 C2.9631894 1.00216427 4.22338615 1.95528765 5.87109375 4.6328125 C6.65816244 8.62554639 6.51952533 11.57911119 4.37109375 15.0703125 C0.93469386 17.21806243 -2.06908896 18.08301006 -6.12890625 17.6328125 C-9.16501791 15.67199038 -10.72689754 14.27050372 -11.60546875 10.69140625 C-11.88930436 6.75505456 -11.32450974 4.93233034 -9.12890625 1.5703125 C-5.60482238 -0.70565833 -4.00499869 -0.83279746 0 0 Z " fill="#CECDD0" transform="translate(163.12890625,243.3671875)"/>
<path d="M0 0 C3.96310887 0.01040348 7.92622455 0.01483332 11.88934326 0.01983643 C19.60485606 0.03042158 27.3203361 0.04738849 35.03582764 0.06866455 C35.53082764 1.55366455 35.53082764 1.55366455 36.03582764 3.06866455 C6.33582764 3.06866455 -23.36417236 3.06866455 -53.96417236 3.06866455 C-53.96417236 2.40866455 -53.96417236 1.74866455 -53.96417236 1.06866455 C-35.97876787 -0.09316298 -18.0125012 -0.05243745 0 0 Z " fill="#656170" transform="translate(131.96417236328125,225.93133544921875)"/>
<path d="M0 0 C5.28 0 10.56 0 16 0 C14 1 12 2 10 3 C9.9729957 4.45823212 9.95360213 5.91660675 9.9375 7.375 C9.92589844 8.18710938 9.91429688 8.99921875 9.90234375 9.8359375 C9.85533666 12.04937142 9.85533666 12.04937142 11 14 C11.31432523 17.11269291 11.51089874 20.22617578 11.71875 23.34765625 C11.71051998 25.92005405 11.71051998 25.92005405 13 27 C13 32.28 13 37.56 13 43 C26.2 43 39.4 43 53 43 C53 43.33 53 43.66 53 44 C38.81 44 24.62 44 10 44 C8.70474354 35.58083301 7.69901824 28.34388312 8 20 C7.34 20 6.68 20 6 20 C4.86519473 16.39006828 4.89984233 13.0157673 4.9375 9.25 C4.94652344 8.07953125 4.95554687 6.9090625 4.96484375 5.703125 C4.97644531 4.81109375 4.98804688 3.9190625 5 3 C4.34 3 3.68 3 3 3 C3 2.34 3 1.68 3 1 C2.01 0.67 1.02 0.34 0 0 Z " fill="#C14442" transform="translate(56,57)"/>
<path d="M0 0 C3.3 0 6.6 0 10 0 C10.77275439 11.72869439 10.77275439 11.72869439 8.0625 16.1875 C4.15437399 18.50047254 0.46162875 19.34873829 -4 20 C-3.5636242 12.92770249 -2.21244055 6.73351473 0 0 Z " fill="#D13F2F" transform="translate(155,157)"/>
<path d="M0 0 C0 0.66 0 1.32 0 2 C-7.81038295 2.2871214 -15.62085634 2.57167935 -23.43139648 2.85449219 C-26.08604831 2.9507309 -28.74066089 3.04791092 -31.39526367 3.14550781 C-35.22048623 3.28604083 -39.04578024 3.42446749 -42.87109375 3.5625 C-44.04957382 3.60624756 -45.22805389 3.64999512 -46.44224548 3.69506836 C-52.63324021 3.91630946 -58.80507298 4.04603754 -65 4 C-64.97679687 5.20398438 -64.95359375 6.40796875 -64.9296875 7.6484375 C-64.91093137 9.22395215 -64.89273101 10.79947348 -64.875 12.375 C-64.84986328 13.56609375 -64.84986328 13.56609375 -64.82421875 14.78125 C-64.80664527 16.85492015 -64.89664832 18.92883241 -65 21 C-65.66 21.66 -66.32 22.32 -67 23 C-68.78161678 16.75020145 -68.29561672 10.31613149 -67 4 C-69.97 4 -72.94 4 -76 4 C-76 3.34 -76 2.68 -76 2 C-70.41902602 1.07415233 -64.96806657 0.79192436 -59.31640625 0.68359375 C-57.92840317 0.65235413 -57.92840317 0.65235413 -56.51235962 0.6204834 C-53.52915029 0.55491767 -50.54585771 0.49589041 -47.5625 0.4375 C-45.52188987 0.39467975 -43.48128114 0.35179227 -41.44067383 0.30883789 C-27.62567453 0.02737323 -13.81798496 -0.13244075 0 0 Z " fill="#4A4455" transform="translate(88,114)"/>
<path d="M0 0 C0.78375 0.495 1.5675 0.99 2.375 1.5 C2.375 5.46 2.375 9.42 2.375 13.5 C1.715 13.5 1.055 13.5 0.375 13.5 C0.148125 12.88125 -0.07875 12.2625 -0.3125 11.625 C-2.0878632 8.75060243 -3.35988994 8.29813802 -6.625 7.5 C-9.91916842 7.77916681 -12.65624226 8.01562113 -15.625 9.5 C-14.965 7.85 -14.305 6.2 -13.625 4.5 C-14.615 4.5 -15.605 4.5 -16.625 4.5 C-18.82642332 6.9390706 -18.82642332 6.9390706 -20.625 9.5 C-20.955 7.52 -21.285 5.54 -21.625 3.5 C-15.01167304 -2.04089556 -8.11825273 -3.35927699 0 0 Z " fill="#463C54" transform="translate(168.625,236.5)"/>
<path d="M0 0 C0.33 0 0.66 0 1 0 C1.125 6.625 1.125 6.625 0 10 C0.66 10.33 1.32 10.66 2 11 C4.04229387 14.8957455 4.15917183 17.85350888 3.75 22.1875 C3.66234375 23.23292969 3.5746875 24.27835938 3.484375 25.35546875 C3 28 3 28 1 30 C2.65 30.33 4.3 30.66 6 31 C6 31.33 6 31.66 6 32 C2.04 32 -1.92 32 -6 32 C-5.56071097 24.97137554 -4.25612402 18.49283356 -2.45996094 11.7109375 C-1.43240558 7.82351311 -0.59291714 3.97748581 0 0 Z " fill="#86C0AC" transform="translate(19,71)"/>
<path d="M0 0 C2.4932373 2.38483568 3.9311547 3.78305816 4.1328125 7.34765625 C4.13023437 8.24355469 4.12765625 9.13945313 4.125 10.0625 C4.12757813 10.96097656 4.13015625 11.85945313 4.1328125 12.78515625 C4 15 4 15 3 16 C1.20305962 16.09639184 -0.59770893 16.12187425 -2.39723206 16.12025452 C-4.15364517 16.12231651 -4.15364517 16.12231651 -5.94554138 16.12442017 C-7.24169876 16.12082489 -8.53785614 16.11722961 -9.87329102 16.11352539 C-11.24287921 16.11324352 -12.61246756 16.11340125 -13.98205566 16.1139679 C-17.71122948 16.11425588 -21.44037141 16.10835909 -25.16953778 16.10139394 C-29.06264413 16.09516047 -32.95575113 16.09455661 -36.84886169 16.09336853 C-44.22598146 16.09025519 -51.60308649 16.08204178 -58.98019975 16.07201904 C-67.37667543 16.06085797 -75.77315179 16.05534747 -84.16963303 16.05032361 C-101.44643056 16.03985916 -118.72321372 16.02225968 -136 16 C-136 15.67 -136 15.34 -136 15 C-67.69 14.505 -67.69 14.505 2 14 C2.14253494 8.21027945 2.14253494 8.21027945 1 3.0625 C0.67 2.051875 0.34 1.04125 0 0 Z " fill="#E6C0BE" transform="translate(192,86)"/>
<path d="M0 0 C0.33 0 0.66 0 1 0 C1.04241723 2.33294775 1.04092937 4.66702567 1 7 C-0.7772169 8.7772169 -3.152472 8.11988099 -5.51863098 8.12442017 C-6.70545723 8.11902725 -6.70545723 8.11902725 -7.91625977 8.11352539 C-8.74545929 8.11367142 -9.57465881 8.11381744 -10.4289856 8.1139679 C-13.18315198 8.11326851 -15.93725161 8.10547493 -18.69140625 8.09765625 C-20.59569766 8.09579216 -22.49998955 8.09436822 -24.40428162 8.09336853 C-29.42667963 8.08954263 -34.44904892 8.07971173 -39.47143555 8.06866455 C-44.5922812 8.05845198 -49.71313148 8.05387124 -54.83398438 8.04882812 C-64.88933557 8.03808953 -74.9446654 8.02101224 -85 8 C-85 7.67 -85 7.34 -85 7 C-67.84 7 -50.68 7 -33 7 C-33 5.02 -33 3.04 -33 1 C-31.52031676 1.14049518 -30.04125484 1.28754826 -28.5625 1.4375 C-27.32693359 1.55931641 -27.32693359 1.55931641 -26.06640625 1.68359375 C-24 2 -24 2 -23 3 C-20.66702567 3.04092937 -18.33294775 3.04241723 -16 3 C-16 3.33 -16 3.66 -16 4 C-16.804375 4.12375 -17.60875 4.2475 -18.4375 4.375 C-19.283125 4.58125 -20.12875 4.7875 -21 5 C-21.33 5.66 -21.66 6.32 -22 7 C-15.07 7 -8.14 7 -1 7 C-0.67 4.69 -0.34 2.38 0 0 Z " fill="#E0AD83" transform="translate(194,93)"/>
<path d="M0 0 C7.92 0 15.84 0 24 0 C22.875 9 22.875 9 22.02734375 12.28125 C21.78745728 13.22581055 21.78745728 13.22581055 21.54272461 14.18945312 C21.34300049 14.95193359 21.14327637 15.71441406 20.9375 16.5 C20.298125 18.975 19.65875 21.45 19 24 C12.4 24 5.8 24 -1 24 C-0.67 16.08 -0.34 8.16 0 0 Z M2 2 C1.67 4.371875 1.34 6.74375 1 9.1875 C0.89558594 9.92508545 0.79117188 10.6626709 0.68359375 11.42260742 C0.19349755 15.02296689 0 18.34551987 0 22 C5.94 22 11.88 22 18 22 C18.66 19.628125 19.32 17.25625 20 14.8125 C20.20882812 14.07491455 20.41765625 13.3373291 20.6328125 12.57739258 C21.65795836 8.81191387 22 5.97013046 22 2 C15.4 2 8.8 2 2 2 Z " fill="#BE4946" transform="translate(125,116)"/>
<path d="M0 0 C0.66 0.33 1.32 0.66 2 1 C1.34 1.99 0.68 2.98 0 4 C-0.66 4 -1.32 4 -2 4 C-2 5.98 -2 7.96 -2 10 C-10.91 10.66 -19.82 11.32 -29 12 C-29.33 13.65 -29.66 15.3 -30 17 C-30.99 16.67 -31.98 16.34 -33 16 C-31.65143121 10.48312766 -31.65143121 10.48312766 -28.75854492 8.33764648 C-25.8090757 6.90741887 -23.8057112 6.56018308 -20.55078125 6.41015625 C-19.53822266 6.34763672 -18.52566406 6.28511719 -17.48242188 6.22070312 C-15.35764074 6.11466044 -13.23262908 6.01314575 -11.10742188 5.91601562 C-10.09873047 5.85220703 -9.09003906 5.78839844 -8.05078125 5.72265625 C-6.66886597 5.65703491 -6.66886597 5.65703491 -5.2590332 5.59008789 C-2.82968415 5.2301423 -2.82968415 5.2301423 -1.74682617 3.01733398 C-1.50037354 2.35161377 -1.2539209 1.68589355 -1 1 C-0.67 0.67 -0.34 0.34 0 0 Z " fill="#7CB4A2" transform="translate(53,52)"/>
<path d="M0 0 C0.69738281 0.00451172 1.39476563 0.00902344 2.11328125 0.01367188 C3.82555803 0.0253998 5.53779033 0.04333347 7.25 0.0625 C7.25 0.3925 7.25 0.7225 7.25 1.0625 C2.63 1.0625 -1.99 1.0625 -6.75 1.0625 C-6.605625 2.07570313 -6.46125 3.08890625 -6.3125 4.1328125 C-6.12478709 5.48434545 -5.93729904 6.83590964 -5.75 8.1875 C-5.65460937 8.85265625 -5.55921875 9.5178125 -5.4609375 10.203125 C-4.91388547 14.18878981 -4.64977818 18.04109938 -4.75 22.0625 C-7.06 22.0625 -9.37 22.0625 -11.75 22.0625 C-11.75 15.1325 -11.75 8.2025 -11.75 1.0625 C-7.71423344 0.05355836 -4.11293071 -0.05053696 0 0 Z " fill="#7BB7A3" transform="translate(65.75,115.9375)"/>
<path d="M0 0 C2.64 0 5.28 0 8 0 C7.86057319 3.56278089 7.71232922 7.1251426 7.5625 10.6875 C7.52318359 11.69490234 7.48386719 12.70230469 7.44335938 13.74023438 C7.40146484 14.71669922 7.35957031 15.69316406 7.31640625 16.69921875 C7.27974854 17.59471436 7.24309082 18.49020996 7.20532227 19.4128418 C6.99938249 22.00778088 6.56232178 24.46054684 6 27 C5.34 27 4.68 27 4 27 C3.91435791 26.43490723 3.82871582 25.86981445 3.74047852 25.28759766 C3.35130182 22.73285367 2.95696515 20.17893253 2.5625 17.625 C2.42779297 16.73554688 2.29308594 15.84609375 2.15429688 14.9296875 C2.02216797 14.07890625 1.89003906 13.228125 1.75390625 12.3515625 C1.63345947 11.56604004 1.5130127 10.78051758 1.38891602 9.97119141 C1.07761762 7.93388316 1.07761762 7.93388316 0 6 C-0.039992 4.00039988 -0.04346799 1.99952758 0 0 Z " fill="#BB4A42" transform="translate(64,155)"/>
<path d="M0 0 C2.31 0 4.62 0 7 0 C7 0.33 7 0.66 7 1 C12.94 1 18.88 1 25 1 C25 1.99 25 2.98 25 4 C17.49420286 7.18427758 11.09277026 8.29309832 3 8 C3.33 10.64 3.66 13.28 4 16 C2.02 16.99 2.02 16.99 0 18 C-2.1519437 14.77208445 -2.20086443 13.71599191 -2 10 C-4.31 10.33 -6.62 10.66 -9 11 C-5.5647952 8.70986347 -4.014669 8.82157027 0 9 C0 10.98 0 12.96 0 15 C0.66 15 1.32 15 2 15 C2 12.36 2 9.72 2 7 C8.27 5.68 14.54 4.36 21 3 C12.78118773 3.70984456 12.78118773 3.70984456 8 5 C6.58465222 5.06456879 5.16662311 5.08611039 3.75 5.0625 C1.89375 5.0315625 1.89375 5.0315625 0 5 C0 3.35 0 1.7 0 0 Z " fill="#BA3938" transform="translate(126,36)"/>
<path d="M0 0 C-0.875 7.625 -0.875 7.625 -2 11 C-6.92127034 11.16682272 -10.50343896 11.24828052 -15 9 C-15 7.02 -15 5.04 -15 3 C-13.0636296 2.49564306 -11.12585854 1.99666126 -9.1875 1.5 C-8.10855469 1.2215625 -7.02960938 0.943125 -5.91796875 0.65625 C-3 0 -3 0 0 0 Z " fill="#F8DF7A" transform="translate(133,181)"/>
<path d="M0 0 C10.23 0 20.46 0 31 0 C31 0.33 31 0.66 31 1 C25.72 1 20.44 1 15 1 C15 3.64 15 6.28 15 9 C14.37890625 11.5390625 14.37890625 11.5390625 13.5625 13.625 C12.16926994 17.24605203 11.67152212 19.97086727 11 24 C17.93 24 24.86 24 32 24 C32.66 22.68 33.32 21.36 34 20 C34.495 20.99 34.495 20.99 35 22 C34.505 23.485 34.505 23.485 34 25 C26.08 25 18.16 25 10 25 C10 11.88 10 11.88 13 6 C13.69140522 3.22111387 13.69140522 3.22111387 14 1 C12.39479996 1.06023265 10.79065673 1.14908599 9.1875 1.25 C8.29417969 1.29640625 7.40085938 1.3428125 6.48046875 1.390625 C3.88441099 1.79809848 3.88441099 1.79809848 2.20703125 3.82421875 C0.76678077 6.1136269 0.76678077 6.1136269 0.5 9.5625 C0 13 0 13 -1.5625 14.9375 C-2.036875 15.288125 -2.51125 15.63875 -3 16 C-2.39623622 10.36487141 -1.40669734 5.62678937 0 0 Z " fill="#E4C9A9" transform="translate(149,116)"/>
<path d="M0 0 C0.33 0 0.66 0 1 0 C1 0.886875 1 1.77375 1 2.6875 C2.3139347 7.03990871 4.18405395 7.64940704 8 9.7890625 C12.54852838 12.54305429 15.08527536 17.16280091 17 22 C16.8125 24.8125 16.8125 24.8125 16 27 C15.34 27.33 14.68 27.66 14 28 C13.85304687 27.43152344 13.70609375 26.86304687 13.5546875 26.27734375 C11.86868421 20.47322897 9.60263387 16.02730464 5 12 C4.01 11.67 3.02 11.34 2 11 C2.144375 11.9178125 2.28875 12.835625 2.4375 13.78125 C3.41638286 20.25275333 4.26184366 26.45390849 4 33 C3.67 33 3.34 33 3 33 C3 31.02 3 29.04 3 27 C2.34 27 1.68 27 1 27 C1 21.39 1 15.78 1 10 C1.66 10 2.32 10 3 10 C3 9.34 3 8.68 3 8 C2.01 8.33 1.02 8.66 0 9 C0 6.03 0 3.06 0 0 Z " fill="#A38C92" transform="translate(156,48)"/>
<path d="M0 0 C1 1 1 1 1 6 C-5.435 6.495 -5.435 6.495 -12 7 C-12.33 5.68 -12.66 4.36 -13 3 C-14.299375 3.144375 -15.59875 3.28875 -16.9375 3.4375 C-18.03384766 3.55931641 -18.03384766 3.55931641 -19.15234375 3.68359375 C-21.01140229 3.81886614 -21.01140229 3.81886614 -22 5 C-23.51928038 5.07179964 -25.04167482 5.08392007 -26.5625 5.0625 C-27.38878906 5.05347656 -28.21507813 5.04445313 -29.06640625 5.03515625 C-29.70449219 5.02355469 -30.34257813 5.01195312 -31 5 C-27.36428204 2.86134238 -23.5347968 2.12775134 -19.4375 1.375 C-18.73165771 1.24383789 -18.02581543 1.11267578 -17.29858398 0.97753906 C-11.55355127 -0.02704256 -5.82989967 -0.60996938 0 0 Z " fill="#D65651" transform="translate(123,37)"/>
<path d="M0 0 C6.35375112 -0.0253261 12.70748926 -0.04285678 19.0612793 -0.05493164 C21.22339362 -0.05996472 23.38550453 -0.06679169 25.54760742 -0.07543945 C28.65284059 -0.08754979 31.7580288 -0.09323852 34.86328125 -0.09765625 C36.31653557 -0.10539818 36.31653557 -0.10539818 37.79914856 -0.11329651 C38.6998558 -0.11337204 39.60056305 -0.11344757 40.52856445 -0.11352539 C41.32132278 -0.115746 42.11408112 -0.11796661 42.93086243 -0.12025452 C45 0 45 0 48 1 C48 1.66 48 2.32 48 3 C32.31697995 3.18895205 16.66973829 2.60528268 1 2 C0.67 1.34 0.34 0.68 0 0 Z " fill="#50484F" transform="translate(150,114)"/>
<path d="M0 0 C1.65 0 3.3 0 5 0 C6.25433458 3.76300374 6.10695422 7.27210909 6.0625 11.1875 C6.05798828 11.93708984 6.05347656 12.68667969 6.04882812 13.45898438 C6.03706354 15.30602383 6.01912865 17.15302213 6 19 C4.35 19 2.7 19 1 19 C-0.26582219 15.13276369 -0.1118765 11.26848738 -0.0625 7.25 C-0.05798828 6.55261719 -0.05347656 5.85523437 -0.04882812 5.13671875 C-0.0371002 3.42444197 -0.01916653 1.71220967 0 0 Z " fill="#D6342C" transform="translate(61,118)"/>
<path d="M0 0 C3.63 0 7.26 0 11 0 C11.125 6.625 11.125 6.625 10 10 C8.5199159 9.88637738 7.04089926 9.75877092 5.5625 9.625 C4.73878906 9.55539063 3.91507813 9.48578125 3.06640625 9.4140625 C2.38449219 9.27742188 1.70257813 9.14078125 1 9 C-0.4783226 6.04335481 -0.06032783 3.25770263 0 0 Z " fill="#F4D888" transform="translate(160,82)"/>
<path d="M0 0 C0.33 0 0.66 0 1 0 C1 6.27 1 12.54 1 19 C3.83203125 19.45572917 6.6640625 19.91145833 9.49609375 20.3671875 C10.32238281 20.57601562 11.14867187 20.78484375 12 21 C12.33 21.66 12.66 22.32 13 23 C6.07 22.505 6.07 22.505 -1 22 C-1.33 22.99 -1.66 23.98 -2 25 C-2 23.68 -2 22.36 -2 21 C-6.455 20.01 -6.455 20.01 -11 19 C-11 18.67 -11 18.34 -11 18 C-8.03 18 -5.06 18 -2 18 C-1.93941406 16.78441406 -1.87882813 15.56882812 -1.81640625 14.31640625 C-1.73201668 12.73175772 -1.6473679 11.14712298 -1.5625 9.5625 C-1.52318359 8.76005859 -1.48386719 7.95761719 -1.44335938 7.13085938 C-1.11328125 1.11328125 -1.11328125 1.11328125 0 0 Z " fill="#5C4E43" transform="translate(172,74)"/>
<path d="M0 0 C0.84681133 5.08086796 1.09038099 9.84828377 1 15 C0.67 15 0.34 15 0 15 C-0.12117188 14.43410156 -0.24234375 13.86820313 -0.3671875 13.28515625 C-0.53476563 12.55167969 -0.70234375 11.81820312 -0.875 11.0625 C-1.03742188 10.33160156 -1.19984375 9.60070312 -1.3671875 8.84765625 C-1.82961523 6.79299706 -1.82961523 6.79299706 -4 6 C-4 5.34 -4 4.68 -4 4 C-5.918125 4.2475 -5.918125 4.2475 -7.875 4.5 C-12.9284158 5.07041736 -17.92062649 5.09543708 -23 5 C-17.21379393 -1.41934716 -7.9501369 -0.23850411 0 0 Z " fill="#CF3730" transform="translate(155,33)"/>
<path d="M0 0 C19.14 0.33 38.28 0.66 58 1 C58 1.33 58 1.66 58 2 C38.98700838 2.97662361 20.03128328 3.11886551 1 3 C0.67 2.01 0.34 1.02 0 0 Z " fill="#5D5668" transform="translate(54,152)"/>
<path d="M0 0 C0.66 0 1.32 0 2 0 C2 1.65 2 3.3 2 5 C3.71896484 4.67515625 3.71896484 4.67515625 5.47265625 4.34375 C7.00254447 4.06217548 8.53249581 3.7809437 10.0625 3.5 C10.81466797 3.35691406 11.56683594 3.21382812 12.34179688 3.06640625 C16.97740175 2.223569 21.2889615 1.84984738 26 2 C22.78660465 4.14226357 20.43016168 4.77027449 16.6875 5.625 C15.02267578 6.01558594 15.02267578 6.01558594 13.32421875 6.4140625 C10.13489257 6.9762234 7.22976591 7.10749599 4 7 C4 9.64 4 12.28 4 15 C3.34 15 2.68 15 2 15 C2 13.02 2 11.04 2 9 C-1.3 9 -4.6 9 -8 9 C-6 7 -6 7 -2.875 6.875 C-1.92625 6.91625 -0.9775 6.9575 0 7 C0 4.69 0 2.38 0 0 Z " fill="#602F3E" transform="translate(124,36)"/>
<path d="M0 0 C1.65 0.33 3.3 0.66 5 1 C4.01 1.33 3.02 1.66 2 2 C2.09539062 2.62648437 2.19078125 3.25296875 2.2890625 3.8984375 C2.39992188 4.71570313 2.51078125 5.53296875 2.625 6.375 C2.74101563 7.18710938 2.85703125 7.99921875 2.9765625 8.8359375 C2.98429687 9.55007812 2.99203125 10.26421875 3 11 C2.34 11.66 1.68 12.32 1 13 C0.75684344 15.66949409 0.75684344 15.66949409 0.875 18.625 C0.91625 20.39875 0.9575 22.1725 1 24 C4.63 24 8.26 24 12 24 C12.12375 22.741875 12.2475 21.48375 12.375 20.1875 C12.69868059 16.89674737 13.06604999 15.90092502 15 13 C14.51775271 17.13354822 14.01114519 20.95541924 13 25 C5.08 26.485 5.08 26.485 -3 28 C-2.85691406 26.72253906 -2.71382813 25.44507813 -2.56640625 24.12890625 C-2.00398437 19.0671093 -1.46799331 14.00272874 -0.9375 8.9375 C-0.84662109 8.07189453 -0.75574219 7.20628906 -0.66210938 6.31445312 C-0.44116432 4.2096608 -0.22054721 2.10483405 0 0 Z " fill="#C54537" transform="translate(121,156)"/>
<path d="M0 0 C0.93457031 -0.02578125 1.86914062 -0.0515625 2.83203125 -0.078125 C3.99798828 0.08429688 3.99798828 0.08429688 5.1875 0.25 C5.8475 1.24 6.5075 2.23 7.1875 3.25 C4.2175 3.25 1.2475 3.25 -1.8125 3.25 C-1.78929687 4.45398438 -1.76609375 5.65796875 -1.7421875 6.8984375 C-1.72343137 8.47395215 -1.70523101 10.04947348 -1.6875 11.625 C-1.66236328 12.81609375 -1.66236328 12.81609375 -1.63671875 14.03125 C-1.61914527 16.10492015 -1.70914832 18.17883241 -1.8125 20.25 C-2.4725 20.91 -3.1325 21.57 -3.8125 22.25 C-5.59411678 16.00020145 -5.10811672 9.56613149 -3.8125 3.25 C-6.7825 3.25 -9.7525 3.25 -12.8125 3.25 C-12.8125 2.59 -12.8125 1.93 -12.8125 1.25 C-8.53219548 0.48905697 -4.348894 0.11444458 0 0 Z " fill="#415558" transform="translate(24.8125,114.75)"/>
<path d="M0 0 C0.87269531 -0.01417969 1.74539062 -0.02835938 2.64453125 -0.04296875 C5.34278898 0.20157381 6.94190179 0.68534246 9.1875 2.1875 C9.9375 4.8125 9.9375 4.8125 10.1875 7.1875 C5.53212607 8.02546731 1.81671525 8.2036692 -2.8125 7.1875 C-2.8125 6.1975 -2.8125 5.2075 -2.8125 4.1875 C-4.25000191 2.49951173 -4.25000191 2.49951173 -5.8125 1.1875 C-4.16504404 -0.45995596 -2.25914549 0.0165384 0 0 Z " fill="#413851" transform="translate(37.8125,235.8125)"/>
<path d="M0 0 C2.31 0.33 4.62 0.66 7 1 C6 3.4375 6 3.4375 4 6 C1.20287592 6.55942482 -1.1901482 6.85130346 -4 7 C-5.33526835 7.1731833 -6.66892434 7.35959212 -8 7.5625 C-9.485 7.7790625 -9.485 7.7790625 -11 8 C-11 8.66 -11 9.32 -11 10 C-10.01 10.66 -9.02 11.32 -8 12 C-11.3 12 -14.6 12 -18 12 C-18.33 10.68 -18.66 9.36 -19 8 C-16.2092793 7.16338138 -13.41751988 6.33057263 -10.625 5.5 C-9.8309375 5.26152344 -9.036875 5.02304687 -8.21875 4.77734375 C-7.45820312 4.55175781 -6.69765625 4.32617188 -5.9140625 4.09375 C-5.2123291 3.88427734 -4.5105957 3.67480469 -3.78759766 3.45898438 C-2 3 -2 3 0 3 C0 2.01 0 1.02 0 0 Z " fill="#D34F49" transform="translate(74,43)"/>
<path d="M0 0 C-0.32484375 1.07314453 -0.32484375 1.07314453 -0.65625 2.16796875 C-2.59918656 9.121163 -3.22755246 15.17127607 -2.8125 22.3828125 C-2.874375 23.24648438 -2.93625 24.11015625 -3 25 C-3.99 25.66 -4.98 26.32 -6 27 C-7.3597852 19.18123513 -7.89986053 10.75776382 -6 3 C-3.92839358 0.92839358 -2.94846185 0 0 0 Z " fill="#75717E" transform="translate(85,16)"/>
<path d="M0 0 C1.94378558 3.3545813 2.52505208 6.41251887 3.0703125 10.234375 C3.33134766 12.05582031 3.33134766 12.05582031 3.59765625 13.9140625 C3.77167969 15.17992188 3.94570312 16.44578125 4.125 17.75 C4.39763672 19.62558594 4.39763672 19.62558594 4.67578125 21.5390625 C5.54885589 27.74905201 6.23635804 33.72863326 6 40 C5.34 40 4.68 40 4 40 C2.72041041 32.41775102 1.69976499 24.83117046 0.875 17.1875 C0.78750488 16.40012451 0.70000977 15.61274902 0.60986328 14.80151367 C0.09099926 9.83889775 -0.07965114 4.98957474 0 0 Z " fill="#742A35" transform="translate(62,61)"/>
<path d="M0 0 C1.1875 1.5625 1.1875 1.5625 2 4 C1.25139049 5.53124672 0.50053222 7.06143556 -0.26171875 8.5859375 C-1.93598205 14.06051275 -1.19750806 20.31615683 -1 26 C-1.99 26.33 -2.98 26.66 -4 27 C-6.7057578 18.88272659 -5.41514555 10.47810123 -1.97265625 2.828125 C-1 1 -1 1 0 0 Z " fill="#7F7B87" transform="translate(77,18)"/>
<path d="M0 0 C5.28 0 10.56 0 16 0 C14 1 12 2 10 3 C10 8.61 10 14.22 10 20 C9.67 20 9.34 20 9 20 C8.34 16.04 7.68 12.08 7 8 C7 11.96 7 15.92 7 20 C4.88873057 15.77746115 4.7828003 13.85998477 4.875 9.25 C4.89304687 8.07953125 4.91109375 6.9090625 4.9296875 5.703125 C4.95289063 4.81109375 4.97609375 3.9190625 5 3 C4.34 3 3.68 3 3 3 C3 2.34 3 1.68 3 1 C2.01 0.67 1.02 0.34 0 0 Z " fill="#B33A3B" transform="translate(56,57)"/>
<path d="M0 0 C0.33 0 0.66 0 1 0 C1.24423826 6.89294634 0.70436847 13.21029924 -0.5546875 19.984375 C-1.24908407 24.68677986 -1.12489394 29.25403016 -1 34 C2.96 34.66 6.92 35.32 11 36 C11.33 33.69 11.66 31.38 12 29 C12.33 29 12.66 29 13 29 C13 31.64 13 34.28 13 37 C11.27119018 37.05449838 9.54187288 37.09301688 7.8125 37.125 C6.84957031 37.14820313 5.88664062 37.17140625 4.89453125 37.1953125 C1.87187222 36.9913544 -0.26769985 36.26874632 -3 35 C-3.02684312 32.18743719 -3.04676188 29.37512759 -3.0625 26.5625 C-3.07087891 25.76005859 -3.07925781 24.95761719 -3.08789062 24.13085938 C-3.0965143 22.08704779 -3.0522815 20.04316098 -3 18 C-2.67 17.67 -2.34 17.34 -2 17 C-1.599617 14.14471393 -1.2481773 11.30263513 -0.9375 8.4375 C-0.84662109 7.63119141 -0.75574219 6.82488281 -0.66210938 5.99414062 C-0.43752551 3.99652623 -0.21826764 1.9983144 0 0 Z " fill="#E2C5AF" transform="translate(120,156)"/>
<path d="M0 0 C2.92531066 1.07997023 5.29977204 2.39986491 8 4 C7.01 4.495 7.01 4.495 6 5 C6 5.99 6 6.98 6 8 C3.83032311 8.95465783 2.43671207 9.14401212 0.17578125 8.3984375 C-1.5684743 7.64129615 -3.28627131 6.82390802 -5 6 C-4.67 5.34 -4.34 4.68 -4 4 C-5.95633975 1.58878141 -5.95633975 1.58878141 -9.625 1.875 C-11.295625 1.936875 -11.295625 1.936875 -13 2 C-8.7319123 -0.8453918 -5.0125878 -0.63487857 0 0 Z " fill="#8E8A96" transform="translate(106,4)"/>
<path d="M0 0 C0 0.99 0 1.98 0 3 C-13.365 3.495 -13.365 3.495 -27 4 C-27 3.34 -27 2.68 -27 2 C-17.86970027 0.09572892 -9.28145408 -0.22823248 0 0 Z " fill="#42545B" transform="translate(51,62)"/>
<path d="M0 0 C0.99 0 1.98 0 3 0 C3 0.99 3 1.98 3 3 C2.34 3 1.68 3 1 3 C0.95101562 3.67546875 0.90203125 4.3509375 0.8515625 5.046875 C0.77679688 5.93890625 0.70203125 6.8309375 0.625 7.75 C0.55539063 8.63171875 0.48578125 9.5134375 0.4140625 10.421875 C-0.00290629 13.01809575 -0.7920303 14.69301472 -2 17 C-2.35543427 19.33006911 -2.6913753 21.66327016 -3 24 C-4 25 -4 25 -6.40844727 25.11352539 C-7.45057373 25.10828857 -8.4927002 25.10305176 -9.56640625 25.09765625 C-10.69111328 25.09443359 -11.81582031 25.09121094 -12.97460938 25.08789062 C-14.15861328 25.07951172 -15.34261719 25.07113281 -16.5625 25.0625 C-17.75037109 25.05798828 -18.93824219 25.05347656 -20.16210938 25.04882812 C-23.10812226 25.03699675 -26.05403681 25.02051287 -29 25 C-29 24.67 -29 24.34 -29 24 C-21.08 24 -13.16 24 -5 24 C-4.67 20.7 -4.34 17.4 -4 14 C-3.03238392 11.98413316 -2.03432904 9.98246398 -1 8 C-0.47752946 5.32416956 -0.23473782 2.7229587 0 0 Z " fill="#DCD1B9" transform="translate(188,117)"/>
<path d="M0 0 C0.33 0 0.66 0 1 0 C1.495 4.95 1.495 4.95 2 10 C2.99 10.33 3.98 10.66 5 11 C4.67 11.66 4.34 12.32 4 13 C3.34 13 2.68 13 2 13 C2 14.98 2 16.96 2 19 C-11.2 19 -24.4 19 -38 19 C-38 18.67 -38 18.34 -38 18 C-25.13 18 -12.26 18 1 18 C0.505 15.03 0.505 15.03 0 12 C-0.06460219 9.87588004 -0.08611079 7.74997095 -0.0625 5.625 C-0.05347656 4.56539063 -0.04445312 3.50578125 -0.03515625 2.4140625 C-0.02355469 1.61742188 -0.01195312 0.82078125 0 0 Z " fill="#C04331" transform="translate(159,81)"/>
<path d="M0 0 C0 0.33 0 0.66 0 1 C-0.59167969 1.03738281 -1.18335937 1.07476562 -1.79296875 1.11328125 C-6.75872091 1.52641887 -9.74631282 2.31346073 -14 5 C-17.8125 5.6875 -17.8125 5.6875 -21 6 C-21.33 7.65 -21.66 9.3 -22 11 C-22.99 10.67 -23.98 10.34 -25 10 C-24.15367067 6.53774367 -23.59853867 4.49593204 -20.8125 2.1875 C-14.17235573 -0.61611647 -7.07822553 -0.11519716 0 0 Z " fill="#9EC8B8" transform="translate(45,58)"/>
<path d="M0 0 C0.33 0 0.66 0 1 0 C1.19585685 6.78970406 0.4335004 13.28047912 -0.5 20 C-0.64308594 21.06089844 -0.78617188 22.12179688 -0.93359375 23.21484375 C-1.2843679 25.81057243 -1.63994284 28.40554555 -2 31 C-2.66 31 -3.32 31 -4 31 C-4.16071452 24.18011434 -3.57580306 17.7396436 -2.5625 11 C-2.36043945 9.57107422 -2.36043945 9.57107422 -2.15429688 8.11328125 C-1.13375235 1.13375235 -1.13375235 1.13375235 0 0 Z " fill="#3D5858" transform="translate(27,71)"/>
<path d="M0 0 C0.33 0 0.66 0 1 0 C1 1.98 1 3.96 1 6 C-1.97 6 -4.94 6 -8 6 C-8 6.66 -8 7.32 -8 8 C-10.97 8 -13.94 8 -17 8 C-16.67 7.01 -16.34 6.02 -16 5 C-13.12890625 4.05078125 -13.12890625 4.05078125 -9.5625 3.3125 C-8.38816406 3.06113281 -7.21382812 2.80976562 -6.00390625 2.55078125 C-3 2 -3 2 -1 2 C-0.67 1.34 -0.34 0.68 0 0 Z " fill="#D7332B" transform="translate(79,46)"/>
<path d="M0 0 C2.751348 0.35731792 3.78917569 0.75588764 5.6328125 2.890625 C6.12523438 3.66921875 6.61765625 4.4478125 7.125 5.25 C7.62257813 6.01828125 8.12015625 6.7865625 8.6328125 7.578125 C12.18356329 13.86802639 12.18356329 13.86802639 11.625 17.3125 C11.315625 18.1478125 11.315625 18.1478125 11 19 C8.34177837 16.64314652 7.00224942 14.26440983 5.5 11.0625 C4.26128347 8.43022737 3.10018269 6.13255305 1.34375 3.80859375 C0 2 0 2 0 0 Z " fill="#6F6B78" transform="translate(112,9)"/>
<path d="M0 0 C10.23 0 20.46 0 31 0 C31 0.33 31 0.66 31 1 C29.79670044 1.01401855 29.79670044 1.01401855 28.5690918 1.02832031 C24.94126361 1.08193742 21.31473708 1.16560298 17.6875 1.25 C16.42486328 1.26417969 15.16222656 1.27835937 13.86132812 1.29296875 C12.04858398 1.34130859 12.04858398 1.34130859 10.19921875 1.390625 C8.52605591 1.4220459 8.52605591 1.4220459 6.8190918 1.45410156 C3.917301 1.74764116 3.917301 1.74764116 2.14379883 3.81542969 C0.7790128 6.12417447 0.7790128 6.12417447 0.5 9.5625 C0 13 0 13 -1.5625 14.9375 C-2.036875 15.288125 -2.51125 15.63875 -3 16 C-2.39623622 10.36487141 -1.40669734 5.62678937 0 0 Z " fill="#B3A29A" transform="translate(149,116)"/>
<path d="M0 0 C0.33 1.32 0.66 2.64 1 4 C-1.64 4 -4.28 4 -7 4 C-7 4.66 -7 5.32 -7 6 C-9.31 6 -11.62 6 -14 6 C-14.33 4.68 -14.66 3.36 -15 2 C-9.75614911 0.2520497 -5.52677733 -0.19392201 0 0 Z " fill="#D7332C" transform="translate(110,40)"/>
<path d="M0 0 C4.95 0 9.9 0 15 0 C15 0.33 15 0.66 15 1 C10.38 1 5.76 1 1 1 C1.144375 2.01320313 1.28875 3.02640625 1.4375 4.0703125 C1.62521291 5.42184545 1.81270096 6.77340964 2 8.125 C2.09539063 8.79015625 2.19078125 9.4553125 2.2890625 10.140625 C2.83611453 14.12628981 3.10022182 17.97859938 3 22 C2.67 22 2.34 22 2 22 C1.34 18.37 0.68 14.74 0 11 C-0.66 11 -1.32 11 -2 11 C-2.33 11.99 -2.66 12.98 -3 14 C-3 11.03 -3 8.06 -3 5 C-2.34 4.67 -1.68 4.34 -1 4 C-0.67 2.68 -0.34 1.36 0 0 Z " fill="#8E9487" transform="translate(58,116)"/>
<path d="M0 0 C0 0.99 0 1.98 0 3 C-0.99 3.495 -0.99 3.495 -2 4 C-2.65555119 6.52733235 -2.65555119 6.52733235 -3 9 C-4.65 9 -6.3 9 -8 9 C-7.67 8.01 -7.34 7.02 -7 6 C-7.99 6 -8.98 6 -10 6 C-10 5.01 -10 4.02 -10 3 C-10.66 2.67 -11.32 2.34 -12 2 C-10.37548581 1.66430703 -8.75037083 1.3315204 -7.125 1 C-6.22007813 0.814375 -5.31515625 0.62875 -4.3828125 0.4375 C-2 0 -2 0 0 0 Z " fill="#FCDF6C" transform="translate(132,181)"/>
<path d="M0 0 C0.33 0 0.66 0 1 0 C1 3.3 1 6.6 1 10 C1.74765625 10.06058594 2.4953125 10.12117187 3.265625 10.18359375 C4.25046875 10.26738281 5.2353125 10.35117188 6.25 10.4375 C7.71179688 10.55931641 7.71179688 10.55931641 9.203125 10.68359375 C11.56461753 10.95074584 13.71901065 11.35371968 16 12 C16.28875 11.4225 16.5775 10.845 16.875 10.25 C17.91666667 8.16666667 18.95833333 6.08333333 20 4 C20.23000204 6.76002447 20.17432707 8.61198167 19.03125 11.15625 C15.81537402 14.07527589 12.48847291 13.4281383 8.3125 13.25 C7.51521484 13.23195312 6.71792969 13.21390625 5.89648438 13.1953125 C3.93047551 13.14822247 1.96508506 13.07647899 0 13 C0 8.71 0 4.42 0 0 Z " fill="#F8DD7E" transform="translate(164,127)"/>
<path d="M0 0 C2.4932373 2.38483568 3.9311547 3.78305816 4.1328125 7.34765625 C4.13023437 8.24355469 4.12765625 9.13945313 4.125 10.0625 C4.12886719 11.41021484 4.12886719 11.41021484 4.1328125 12.78515625 C4 15 4 15 3 16 C0.47905924 16.08847743 -2.01430893 16.11527301 -4.53515625 16.09765625 C-5.66503212 16.09553383 -5.66503212 16.09553383 -6.81773376 16.09336853 C-9.2326956 16.08775376 -11.64756601 16.07519883 -14.0625 16.0625 C-15.69596221 16.0574869 -17.32942586 16.05292366 -18.96289062 16.04882812 C-22.97529585 16.03777954 -26.98763241 16.02050506 -31 16 C-31 15.67 -31 15.34 -31 15 C-20.11 14.67 -9.22 14.34 2 14 C2.14253494 8.21027945 2.14253494 8.21027945 1 3.0625 C0.67 2.051875 0.34 1.04125 0 0 Z " fill="#E0D7BB" transform="translate(192,86)"/>
<path d="M0 0 C6.27 0 12.54 0 19 0 C19 2.64 19 5.28 19 8 C18.67 8 18.34 8 18 8 C18 6.02 18 4.04 18 2 C10.08 2.495 10.08 2.495 2 3 C1.67 5.97 1.34 8.94 1 12 C0.67 12 0.34 12 0 12 C0 8.04 0 4.08 0 0 Z " fill="#AD3C3E" transform="translate(87,155)"/>
<path d="M0 0 C4.95 0 9.9 0 15 0 C14.67 1.32 14.34 2.64 14 4 C15.65 4 17.3 4 19 4 C19 4.33 19 4.66 19 5 C14.38 5 9.76 5 5 5 C5 4.01 5 3.02 5 2 C3.35 1.67 1.7 1.34 0 1 C0 0.67 0 0.34 0 0 Z " fill="#DBDADD" transform="translate(75,222)"/>
<path d="M0 0 C1.61270411 5.01730167 0.55290597 9.83954431 0 15 C3.63 15.66 7.26 16.32 11 17 C11 17.33 11 17.66 11 18 C5.78020872 18.1799928 1.92737019 17.97094808 -3 16 C-3 13.36 -3 10.72 -3 8 C-2.34 8 -1.68 8 -1 8 C-1.020625 7.05125 -1.04125 6.1025 -1.0625 5.125 C-1 2 -1 2 0 0 Z " fill="#E7D99C" transform="translate(149,181)"/>
<path d="M0 0 C1.65 0 3.3 0 5 0 C4.01 0.33 3.02 0.66 2 1 C2.061875 2.03125 2.12375 3.0625 2.1875 4.125 C1.98391853 8.33235037 0.88635847 10.30273739 -1 14 C-1.52456874 16.67627199 -1.76517604 19.27604206 -2 22 C-2.66 22 -3.32 22 -4 22 C-4.33 22.66 -4.66 23.32 -5 24 C-4.39496146 18.3444819 -3.37814297 12.99786009 -1.9375 7.5 C-1.75123047 6.77296875 -1.56496094 6.0459375 -1.37304688 5.296875 C-0.91973545 3.53012276 -0.4604998 1.76489225 0 0 Z " fill="#D7CFBC" transform="translate(177,157)"/>
<path d="M0 0 C0.99 0 1.98 0 3 0 C3 6.93 3 13.86 3 21 C2.34 21 1.68 21 1 21 C0.14626761 13.97195301 -0.12109311 7.07721931 0 0 Z " fill="#B24546" transform="translate(70,117)"/>
<path d="M0 0 C0.66 0 1.32 0 2 0 C2.74805717 7.02639415 3.13794954 13.93391809 3 21 C2.01 21 1.02 21 0 21 C0 14.07 0 7.14 0 0 Z " fill="#692E3C" transform="translate(68,117)"/>
<path d="M0 0 C6.78725416 6.43003026 6.78725416 6.43003026 7.1953125 11.359375 C7.16050781 12.54273438 7.16050781 12.54273438 7.125 13.75 C7.10695313 14.54921875 7.08890625 15.3484375 7.0703125 16.171875 C7.03550781 17.07679688 7.03550781 17.07679688 7 18 C6.67 18 6.34 18 6 18 C6 15.36 6 12.72 6 10 C4.68 10.33 3.36 10.66 2 11 C2 10.01 2 9.02 2 8 C1.34 7.67 0.68 7.34 0 7 C-0.33 7.66 -0.66 8.32 -1 9 C-1.33 8.01 -1.66 7.02 -2 6 C-1.01 5.67 -0.02 5.34 1 5 C0.67 3.35 0.34 1.7 0 0 Z " fill="#6A6476" transform="translate(47,238)"/>
<path d="M0 0 C0.33 0 0.66 0 1 0 C1.02720824 2.68756955 1.0469388 5.37485798 1.0625 8.0625 C1.07087891 8.81466797 1.07925781 9.56683594 1.08789062 10.34179688 C1.10808341 15.00633118 0.77595959 19.39923173 0 24 C-1.32 24 -2.64 24 -4 24 C-3.67 22.68 -3.34 21.36 -3 20 C-2.34 20 -1.68 20 -1 20 C-1.00523682 19.42967041 -1.01047363 18.85934082 -1.01586914 18.27172852 C-1.03658221 15.70199677 -1.0496419 13.13228253 -1.0625 10.5625 C-1.07087891 9.66466797 -1.07925781 8.76683594 -1.08789062 7.84179688 C-1.09111328 6.98779297 -1.09433594 6.13378906 -1.09765625 5.25390625 C-1.10289307 4.46314697 -1.10812988 3.6723877 -1.11352539 2.85766602 C-1 1 -1 1 0 0 Z " fill="#E1C4BE" transform="translate(124,116)"/>
<path d="M0 0 C7.92 0 15.84 0 24 0 C24 9 24 9 21 14 C19.56911472 11.13822943 20.40008303 9.06624227 21 6 C21.66 6 22.32 6 23 6 C23 4.35 23 2.7 23 1 C15.74 1 8.48 1 1 1 C1 2.65 1 4.3 1 6 C0.67 6 0.34 6 0 6 C0 4.02 0 2.04 0 0 Z " fill="#F1DE8D" transform="translate(164,117)"/>
<path d="M0 0 C1.98 0 3.96 0 6 0 C6 0.99 6 1.98 6 3 C5.34 3 4.68 3 4 3 C4 7.62 4 12.24 4 17 C2.06540616 13.13081233 1.46677076 10.47693399 0.875 6.25 C0.70742187 5.07953125 0.53984375 3.9090625 0.3671875 2.703125 C0.24601562 1.81109375 0.12484375 0.9190625 0 0 Z " fill="#D2362D" transform="translate(65,156)"/>
<path d="M0 0 C0.33 0 0.66 0 1 0 C1 4.95 1 9.9 1 15 C-0.32 15 -1.64 15 -3 15 C-2.22095672 4.44191344 -2.22095672 4.44191344 0 0 Z " fill="#C75743" transform="translate(163,125)"/>
<path d="M0 0 C2.31 0 4.62 0 7 0 C7 0.33 7 0.66 7 1 C5.35 1 3.7 1 2 1 C1.97096423 4.10414702 1.9531893 7.20825909 1.9375 10.3125 C1.92912109 11.19357422 1.92074219 12.07464844 1.91210938 12.98242188 C1.90888672 13.82998047 1.90566406 14.67753906 1.90234375 15.55078125 C1.89710693 16.33106689 1.89187012 17.11135254 1.88647461 17.9152832 C1.91862137 20.1961555 1.91862137 20.1961555 3 23 C3.99 23.66 4.98 24.32 6 25 C4.33388095 25.042721 2.66617115 25.04063832 1 25 C0 24 0 24 -0.11352539 21.68334961 C-0.10828857 20.68311768 -0.10305176 19.68288574 -0.09765625 18.65234375 C-0.09443359 17.57275391 -0.09121094 16.49316406 -0.08789062 15.38085938 C-0.07951172 14.24455078 -0.07113281 13.10824219 -0.0625 11.9375 C-0.05798828 10.79732422 -0.05347656 9.65714844 -0.04882812 8.48242188 C-0.03699747 5.65489649 -0.0205141 2.8274736 0 0 Z " fill="#85B3A6" transform="translate(55,155)"/>
<path d="M0 0 C2.31 0 4.62 0 7 0 C7.10466648 8.07094823 7.03387512 15.9874678 6 24 C5.67 24 5.34 24 5 24 C4.67 16.74 4.34 9.48 4 2 C2.68 1.34 1.36 0.68 0 0 Z " fill="#DDAEAD" transform="translate(80,155)"/>
<path d="M0 0 C0.93457031 -0.02578125 1.86914062 -0.0515625 2.83203125 -0.078125 C3.99798828 0.08429688 3.99798828 0.08429688 5.1875 0.25 C5.8475 1.24 6.5075 2.23 7.1875 3.25 C0.28561029 4.08854735 -5.92672188 4.26593448 -12.8125 3.25 C-12.8125 2.59 -12.8125 1.93 -12.8125 1.25 C-8.53219548 0.48905697 -4.348894 0.11444458 0 0 Z " fill="#60666E" transform="translate(24.8125,114.75)"/>
<path d="M0 0 C0.99 0.33 1.98 0.66 3 1 C3 7.6 3 14.2 3 21 C2.67 21 2.34 21 2 21 C0.79556805 13.94546999 -0.28100502 7.16562789 0 0 Z " fill="#B45649" transform="translate(52,68)"/>
<path d="M0 0 C2.31 0.33 4.62 0.66 7 1 C6.0625 3.4375 6.0625 3.4375 4 6 C-1.06387354 7.53450713 -4.24674686 7.37662657 -9 5 C-6.03 4.34 -3.06 3.68 0 3 C0 2.01 0 1.02 0 0 Z " fill="#C15F5C" transform="translate(74,43)"/>
<path d="M0 0 C2.24993359 -0.02707139 4.49996095 -0.04642829 6.75 -0.0625 C8.00296875 -0.07410156 9.2559375 -0.08570313 10.546875 -0.09765625 C13.28536501 -0.02021027 15.41880293 0.17219185 18 1 C18 1.66 18 2.32 18 3 C12.39 3 6.78 3 1 3 C0.67 2.01 0.34 1.02 0 0 Z " fill="#675B64" transform="translate(54,152)"/>
<path d="M0 0 C2.05078125 0.03255208 4.1015625 0.06510417 6.15234375 0.09765625 C6.15234375 1.74765625 6.15234375 3.39765625 6.15234375 5.09765625 C3.51234375 5.42765625 0.87234375 5.75765625 -1.84765625 6.09765625 C-2.22984392 4.44150968 -2.56160727 2.77308601 -2.84765625 1.09765625 C-1.84765625 0.09765625 -1.84765625 0.09765625 0 0 Z " fill="#F9DE70" transform="translate(186.84765625,92.90234375)"/>
<path d="M0 0 C0.99 0 1.98 0 3 0 C3.33 0.99 3.66 1.98 4 3 C6.97 3.495 6.97 3.495 10 4 C6.17482487 6.39073445 2.40334476 6.55966552 -2 7 C-1.34 4.69 -0.68 2.38 0 0 Z " fill="#C43736" transform="translate(86,44)"/>
<path d="M0 0 C3.96 0 7.92 0 12 0 C12.84681133 5.08086796 13.09038099 9.84828377 13 15 C12.67 15 12.34 15 12 15 C11.87882813 14.43410156 11.75765625 13.86820313 11.6328125 13.28515625 C11.46523437 12.55167969 11.29765625 11.81820312 11.125 11.0625 C10.96257812 10.33160156 10.80015625 9.60070312 10.6328125 8.84765625 C10.17038477 6.79299706 10.17038477 6.79299706 8 6 C8 5.34 8 4.68 8 4 C8.66 4 9.32 4 10 4 C10 3.01 10 2.02 10 1 C6.7 1 3.4 1 0 1 C0 0.67 0 0.34 0 0 Z " fill="#D47B78" transform="translate(143,33)"/>
<path d="M0 0 C-0.125 2.3125 -0.125 2.3125 -1 5 C-3.9375 6.75 -3.9375 6.75 -7 8 C-7.99 8.495 -7.99 8.495 -9 9 C-8.70460812 5.45529741 -8.22373481 4.21784705 -5.625 1.6875 C-3 0 -3 0 0 0 Z " fill="#655F70" transform="translate(87,11)"/>
<path d="M0 0 C1.134375 0.020625 2.26875 0.04125 3.4375 0.0625 C2.695 0.9596875 2.695 0.9596875 1.9375 1.875 C0.15473582 4.03279994 0.15473582 4.03279994 0.4375 7.0625 C-1.2125 7.0625 -2.8625 7.0625 -4.5625 7.0625 C-4.60504356 5.06295254 -4.60330783 3.06208364 -4.5625 1.0625 C-3.5625 0.0625 -3.5625 0.0625 0 0 Z " fill="#3E354E" transform="translate(160.5625,260.9375)"/>
<path d="M0 0 C1 3 1 3 0 6 C-3.21451269 7.60725635 -6.43612536 7.05748185 -10 7 C-10 6.67 -10 6.34 -10 6 C-8.35 6 -6.7 6 -5 6 C-5.33 4.68 -5.66 3.36 -6 2 C-3 0 -3 0 0 0 Z " fill="#5D556D" transform="translate(166,262)"/>
<path d="M0 0 C0.33 0 0.66 0 1 0 C1.08107646 2.75059381 1.14052813 5.49879021 1.1875 8.25 C1.21263672 9.02730469 1.23777344 9.80460938 1.26367188 10.60546875 C1.33834499 16.42997175 1.33834499 16.42997175 -0.51171875 19.546875 C-1.00285156 20.02640625 -1.49398437 20.5059375 -2 21 C-2.28100502 13.83437211 -1.20443195 7.05453001 0 0 Z " fill="#E2BABA" transform="translate(106,156)"/>
<path d="M0 0 C1.32 0 2.64 0 4 0 C4 2.64 4 5.28 4 8 C3.34 6.68 2.68 5.36 2 4 C1.67 9.61 1.34 15.22 1 21 C0.67 21 0.34 21 0 21 C0 14.07 0 7.14 0 0 Z " fill="#90BAAB" transform="translate(54,117)"/>
<path d="M0 0 C1.71367057 3.42734115 2.25357053 4.57855174 2.4140625 8.109375 C2.45273438 8.86347656 2.49140625 9.61757812 2.53125 10.39453125 C2.5621875 11.17183594 2.593125 11.94914062 2.625 12.75 C2.66367188 13.54277344 2.70234375 14.33554688 2.7421875 15.15234375 C2.836108 17.10119416 2.91912822 19.05056451 3 21 C2.67 21 2.34 21 2 21 C2 19.02 2 17.04 2 15 C1.34 15 0.68 15 0 15 C0 10.05 0 5.1 0 0 Z " fill="#D27570" transform="translate(157,60)"/>
<path d="M0 0 C-3.47065807 2.31377205 -6.67040155 2.88984473 -10.6875 3.625 C-11.38939453 3.7590625 -12.09128906 3.893125 -12.81445312 4.03125 C-14.54181706 4.3602717 -16.27076591 4.68095312 -18 5 C-18 4.34 -18 3.68 -18 3 C-11.88595404 1.14256832 -6.41481258 -0.42765417 0 0 Z " fill="#722639" transform="translate(150,38)"/>
<path d="M0 0 C-0.99 3.96 -1.98 7.92 -3 12 C-3.99 11.34 -4.98 10.68 -6 10 C-6.4375 6.5625 -6.4375 6.5625 -6 3 C-3.96080228 0.89282902 -2.95416573 0 0 0 Z " fill="#807B89" transform="translate(85,16)"/>
<path d="M0 0 C-0.66 0.66 -1.32 1.32 -2 2 C-1.01 2.66 -0.02 3.32 1 4 C-2.63 4 -6.26 4 -10 4 C-10.33 3.01 -10.66 2.02 -11 1 C-7.32589215 -0.17571451 -3.83070817 -0.07366746 0 0 Z " fill="#433A50" transform="translate(104,5)"/>
<path d="M0 0 C0.66 0 1.32 0 2 0 C5.05023923 5.24641148 5.05023923 5.24641148 4.8125 8.8125 C4 11 4 11 2 12 C0.70756464 7.8803623 -0.26252625 4.33168317 0 0 Z " fill="#777481" transform="translate(168,64)"/>
<path d="M0 0 C0.66 0.33 1.32 0.66 2 1 C1.01 2.485 1.01 2.485 0 4 C-0.66 4 -1.32 4 -2 4 C-2 5.98 -2 7.96 -2 10 C-4.97 9.505 -4.97 9.505 -8 9 C-8 8.01 -8 7.02 -8 6 C-6.824375 5.87625 -6.824375 5.87625 -5.625 5.75 C-2.86319488 5.27785697 -2.86319488 5.27785697 -1.75 3 C-1.5025 2.34 -1.255 1.68 -1 1 C-0.67 0.67 -0.34 0.34 0 0 Z " fill="#B1A8A0" transform="translate(53,52)"/>
<path d="M0 0 C2.33294775 -0.04241723 4.66702567 -0.04092937 7 0 C8 1 8 1 8 6 C2.06 6.495 2.06 6.495 -4 7 C-3.67 6.34 -3.34 5.68 -3 5 C-0.35139573 4.40644386 2.29197322 4.25790731 5 4 C5.33 3.01 5.66 2.02 6 1 C4.02 1 2.04 1 0 1 C0 0.67 0 0.34 0 0 Z " fill="#B83B3A" transform="translate(116,37)"/>
<path d="M0 0 C0.33 0 0.66 0 1 0 C1.33 3.63 1.66 7.26 2 11 C5.96 11.33 9.92 11.66 14 12 C14 12.33 14 12.66 14 13 C9.05 13 4.1 13 -1 13 C-0.67 8.71 -0.34 4.42 0 0 Z " fill="#82B0A5" transform="translate(26,89)"/>
<path d="M0 0 C0.33 0 0.66 0 1 0 C1.33970765 2.49927769 1.67188032 4.99919595 2 7.5 C2.09539063 8.19609375 2.19078125 8.8921875 2.2890625 9.609375 C2.9161622 14.44700129 3.08789528 19.12181196 3 24 C2.67 24 2.34 24 2 24 C0.15467286 18.52940419 -0.25309068 13.81180072 -0.125 8.0625 C-0.11597656 7.28326172 -0.10695312 6.50402344 -0.09765625 5.70117188 C-0.07433691 3.80064553 -0.03847586 1.90027992 0 0 Z " fill="#94AB95" transform="translate(51,65)"/>
<path d="M0 0 C0.86625 0.00644531 1.7325 0.01289062 2.625 0.01953125 C5 0.1875 5 0.1875 8 1.1875 C8 2.1775 8 3.1675 8 4.1875 C4.625 4.3125 4.625 4.3125 1 4.1875 C0.34 3.5275 -0.32 2.8675 -1 2.1875 C-4.58343976 2.02072718 -4.58343976 2.02072718 -8 2.1875 C-4.74004414 0.01419609 -3.77020034 -0.06171459 0 0 Z " fill="#817B8A" transform="translate(101,3.8125)"/>
<path d="M0 0 C1.60080151 4.00200378 0.29279692 7.04556236 -1 11 C-3.64 11 -6.28 11 -9 11 C-9 10.67 -9 10.34 -9 10 C-7.02 10 -5.04 10 -3 10 C-2.67 8.02 -2.34 6.04 -2 4 C-2.99 3.67 -3.98 3.34 -5 3 C-3.35 3 -1.7 3 0 3 C0 2.01 0 1.02 0 0 Z " fill="#F3DE8A" transform="translate(132,181)"/>
<path d="M0 0 C2.69082872 0.17635452 5.32851446 0.61835921 8 1 C5.35261084 2.4606285 4.10551666 3 1 3 C0.67 4.65 0.34 6.3 0 8 C-0.99 7.67 -1.98 7.34 -3 7 C-1.125 1.125 -1.125 1.125 0 0 Z " fill="#92C0B3" transform="translate(23,61)"/>
<path d="M0 0 C0.66 0 1.32 0 2 0 C2 0.66 2 1.32 2 2 C2.99 1.67 3.98 1.34 5 1 C7.6875 1.4375 7.6875 1.4375 10 2 C10 2.66 10 3.32 10 4 C6.75 4.75 6.75 4.75 3 5 C0.5625 3.0625 0.5625 3.0625 -1 1 C-0.67 0.67 -0.34 0.34 0 0 Z " fill="#C6C2CA" transform="translate(154,256)"/>
<path d="M0 0 C1.76462683 3.08809695 2 4.23312136 2 8 C5.63 8.33 9.26 8.66 13 9 C13 9.33 13 9.66 13 10 C8.71 9.67 4.42 9.34 0 9 C-1.15941038 5.52176885 -0.70820884 3.54104422 0 0 Z " fill="#B5CDC5" transform="translate(27,167)"/>
<path d="M0 0 C0 0.99 0 1.98 0 3 C-3.82509158 4.47118907 -6.28312995 3.45442741 -10 2 C-10.66 1.67 -11.32 1.34 -12 1 C-7.67265609 -1.22923777 -4.71599818 -0.92470553 0 0 Z " fill="#D8D7D8" transform="translate(18,104)"/>
<path d="M0 0 C-4.92984325 2.03993514 -8.57960425 3.40652968 -14 3 C-14.33 3.99 -14.66 4.98 -15 6 C-15 4.68 -15 3.36 -15 2 C-13.25364835 1.46706165 -11.50272348 0.94909337 -9.75 0.4375 C-8.77546875 0.14746094 -7.8009375 -0.14257812 -6.796875 -0.44140625 C-4.03756068 -0.99249836 -2.6087176 -0.93789609 0 0 Z " fill="#B53C3E" transform="translate(100,51)"/>
<path d="M0 0 C1.32 0 2.64 0 4 0 C5.85776765 3.13498292 6.20140476 5.37471432 6 9 C2.91910327 6.22719294 1.31224548 3.93673644 0 0 Z " fill="#6F6B79" transform="translate(109,12)"/>
<path d="M0 0 C1.8125 0.1875 1.8125 0.1875 4 1 C5.75 3.5625 5.75 3.5625 7 6 C6.01 7.485 6.01 7.485 5 9 C4.16094435 7.87926138 3.32892169 6.75325453 2.5 5.625 C2.0359375 4.99851562 1.571875 4.37203125 1.09375 3.7265625 C0 2 0 2 0 0 Z " fill="#76737E" transform="translate(112,9)"/>
<path d="M0 0 C1.44715727 3.87186448 0.5441918 6.8232328 -0.4375 10.75 C-0.86869141 12.50570312 -0.86869141 12.50570312 -1.30859375 14.296875 C-1.53675781 15.18890625 -1.76492187 16.0809375 -2 17 C-2.33 17 -2.66 17 -3 17 C-3 13.7 -3 10.4 -3 7 C-2.34 7 -1.68 7 -1 7 C-0.67 4.69 -0.34 2.38 0 0 Z " fill="#DCD4B5" transform="translate(171,182)"/>
<path d="M0 0 C0.33 0 0.66 0 1 0 C0.88617347 1.95901454 0.75858875 3.9172338 0.625 5.875 C0.55539063 6.96554688 0.48578125 8.05609375 0.4140625 9.1796875 C0 12 0 12 -2 14 C-2.05437607 12.41705218 -2.09296271 10.83355744 -2.125 9.25 C-2.14820313 8.36828125 -2.17140625 7.4865625 -2.1953125 6.578125 C-1.99139502 3.8864142 -1.36551721 2.30095026 0 0 Z " fill="#E3C0B5" transform="translate(151,167)"/>
<path d="M0 0 C5.28 0 10.56 0 16 0 C14.68 0.99 13.36 1.98 12 3 C11.67 2.34 11.34 1.68 11 1 C7.37 1.66 3.74 2.32 0 3 C0 2.01 0 1.02 0 0 Z " fill="#DCCCCC" transform="translate(56,102)"/>
<path d="M0 0 C7.42857143 -0.14285714 7.42857143 -0.14285714 11 1 C10.67 2.98 10.34 4.96 10 7 C9.67 5.68 9.34 4.36 9 3 C4.545 2.01 4.545 2.01 0 1 C0 0.67 0 0.34 0 0 Z " fill="#4F3C2C" transform="translate(161,92)"/>
<path d="M0 0 C0.99 0 1.98 0 3 0 C2.50168276 3.68754757 1.89932357 5.60490662 -1 8 C-1.625 5.125 -1.625 5.125 -2 2 C-1.34 1.34 -0.68 0.68 0 0 Z " fill="#3F364E" transform="translate(149,238)"/>
<path d="M0 0 C1.65 0 3.3 0 5 0 C4.34 1.65 3.68 3.3 3 5 C1.68 5 0.36 5 -1 5 C-0.67 3.35 -0.34 1.7 0 0 Z " fill="#F9DF7D" transform="translate(164,95)"/>
<path d="M0 0 C4.54805635 -0.17835515 7.8794254 0.00214565 12 2 C12 2.33 12 2.66 12 3 C7.45194365 3.17835515 4.1205746 2.99785435 0 1 C0 0.67 0 0.34 0 0 Z " fill="#54442D" transform="translate(173,94)"/>
<path d="M0 0 C0.99 0 1.98 0 3 0 C3 1.98 3 3.96 3 6 C1.35 5.67 -0.3 5.34 -2 5 C-1.34 3.35 -0.68 1.7 0 0 Z " fill="#FBE06D" transform="translate(166,84)"/>
<path d="M0 0 C0 0.33 0 0.66 0 1 C-1.051875 1.04125 -2.10375 1.0825 -3.1875 1.125 C-8.18472055 2.27190308 -9.12285398 3.90224658 -12 8 C-12.33 7.34 -12.66 6.68 -13 6 C-9.61143697 -0.61576591 -6.90742239 -0.11141004 0 0 Z " fill="#655E6C" transform="translate(232,75)"/>
<path d="M0 0 C0.66 0.33 1.32 0.66 2 1 C1.67 2.98 1.34 4.96 1 7 C-2.875 5.25 -2.875 5.25 -4 3 C-2.68 2.01 -1.36 1.02 0 0 Z " fill="#5A5368" transform="translate(26,260)"/>
<path d="M0 0 C1.32 0.66 2.64 1.32 4 2 C4 3.98 4 5.96 4 8 C3.34 8 2.68 8 2 8 C0.3125 5.6875 0.3125 5.6875 -1 3 C-0.67 2.01 -0.34 1.02 0 0 Z " fill="#40364F" transform="translate(167,242)"/>
<path d="M0 0 C0 0.99 0 1.98 0 3 C-3.96 3 -7.92 3 -12 3 C-7.92834397 0.96417198 -4.54795711 0 0 0 Z " fill="#FBC774" transform="translate(132,181)"/>
<path d="M0 0 C0.99 0 1.98 0 3 0 C2.67 3.3 2.34 6.6 2 10 C0.0044484 6.00889681 -0.19546065 4.30013434 0 0 Z " fill="#87B0A9" transform="translate(18,118)"/>
<path d="M0 0 C1.32 0 2.64 0 4 0 C4 1.32 4 2.64 4 4 C1.50935112 4.68707555 -0.37886292 5 -3 5 C-2.67 4.34 -2.34 3.68 -2 3 C-1.34 3 -0.68 3 0 3 C0 2.01 0 1.02 0 0 Z " fill="#40364E" transform="translate(25,257)"/>
<path d="M0 0 C3.63 0.66 7.26 1.32 11 2 C11 2.33 11 2.66 11 3 C7.7 3.33 4.4 3.66 1 4 C0.67 2.68 0.34 1.36 0 0 Z " fill="#C0D5CD" transform="translate(55,179)"/>
<path d="M0 0 C0.625 1.875 0.625 1.875 1 4 C-1.39763185 6.39763185 -2.33273498 6.34280586 -5.625 6.625 C-6.44226563 6.69976562 -7.25953125 6.77453125 -8.1015625 6.8515625 C-8.72804687 6.90054688 -9.35453125 6.94953125 -10 7 C-7 5 -7 5 -3.875 3.5 C-0.91129192 2.31101699 -0.91129192 2.31101699 0 0 Z " fill="#FCC675" transform="translate(164,170)"/>
<path d="M0 0 C0.33 0.99 0.66 1.98 1 3 C1.99 3.33 2.98 3.66 4 4 C3.67 4.66 3.34 5.32 3 6 C2.34 6 1.68 6 1 6 C1.33 6.99 1.66 7.98 2 9 C1.01 8.67 0.02 8.34 -1 8 C-1.04241723 5.66705225 -1.04092937 3.33297433 -1 1 C-0.67 0.67 -0.34 0.34 0 0 Z " fill="#3E354D" transform="translate(220,82)"/>
<path d="M0 0 C0.66 0 1.32 0 2 0 C2.80967438 2.91482778 3.21845993 4.46113217 2.0625 7.3125 C1.5365625 8.1478125 1.5365625 8.1478125 1 9 C0.34 9 -0.32 9 -1 9 C-0.67 6.03 -0.34 3.06 0 0 Z " fill="#C94F47" transform="translate(119,175)"/>
<path d="M0 0 C0.33 0 0.66 0 1 0 C1.10957031 0.62648437 1.21914063 1.25296875 1.33203125 1.8984375 C1.49058594 2.71570313 1.64914063 3.53296875 1.8125 4.375 C1.96332031 5.18710938 2.11414062 5.99921875 2.26953125 6.8359375 C2.87544942 9.35820641 2.87544942 9.35820641 6 11 C4.33388095 11.042721 2.66617115 11.04063832 1 11 C0 10 0 10 -0.09765625 7.71484375 C-0.08605469 6.79832031 -0.07445312 5.88179687 -0.0625 4.9375 C-0.05347656 4.01839844 -0.04445312 3.09929687 -0.03515625 2.15234375 C-0.02355469 1.44207031 -0.01195312 0.73179687 0 0 Z " fill="#94B8AC" transform="translate(55,169)"/>
<path d="M0 0 C1.32 0 2.64 0 4 0 C4 0.99 4 1.98 4 3 C3.34 3 2.68 3 2 3 C2 4.98 2 6.96 2 9 C1.67 9 1.34 9 1 9 C0.67 6.03 0.34 3.06 0 0 Z " fill="#81B4A5" transform="translate(25,153)"/>
<path d="M0 0 C0.99 0 1.98 0 3 0 C3 1.32 3 2.64 3 4 C2.21625 3.95875 1.4325 3.9175 0.625 3.875 C-2.16116119 3.71271266 -2.16116119 3.71271266 -4 6 C-4 4.68 -4 3.36 -4 2 C-2.68 2 -1.36 2 0 2 C0 1.34 0 0.68 0 0 Z " fill="#E0DFE2" transform="translate(215,87)"/>
<path d="M0 0 C2 3 2 3 1.75 5 C1 7 1 7 -1 10 C-1.9765625 3.9453125 -1.9765625 3.9453125 -2 2 C-1.34 1.34 -0.68 0.68 0 0 Z " fill="#98969E" transform="translate(115,18)"/>
<path d="M0 0 C0.99 0 1.98 0 3 0 C3 1.98 3 3.96 3 6 C2.01 6 1.02 6 0 6 C0 4.02 0 2.04 0 0 Z " fill="#C1BCC8" transform="translate(27,249)"/>
<path d="M0 0 C0 0.33 0 0.66 0 1 C-1.65 1 -3.3 1 -5 1 C-5 1.99 -5 2.98 -5 4 C-5.99 4.33 -6.98 4.66 -8 5 C-8.33 3.68 -8.66 2.36 -9 1 C-5.8035914 -0.06546953 -3.34252724 -0.07427838 0 0 Z " fill="#72AA9A" transform="translate(34,65)"/>
<path d="M0 0 C0.33 0 0.66 0 1 0 C1.36923077 6.52307692 1.36923077 6.52307692 -0.5 8.9375 C-0.995 9.288125 -1.49 9.63875 -2 10 C-1.125 2.25 -1.125 2.25 0 0 Z " fill="#E5BBB6" transform="translate(148,122)"/>
<path d="M0 0 C1.98 0.99 1.98 0.99 4 2 C3.67 3.65 3.34 5.3 3 7 C1.5 5.75 1.5 5.75 0 4 C0 2.68 0 1.36 0 0 Z " fill="#878290" transform="translate(165,60)"/>
<path d="M0 0 C2.64 0 5.28 0 8 0 C8 0.99 8 1.98 8 3 C5.6568787 2.74438677 3.32156597 2.40729228 1 2 C0.67 1.34 0.34 0.68 0 0 Z " fill="#D5352A" transform="translate(145,34)"/>
</svg>
